<svg width="207" height="61" viewBox="0 0 207 61" fill="none" xmlns="http://www.w3.org/2000/svg">
<rect width="207" height="61" rx="7.7625" fill="black"/>
<path d="M55.9936 25.27C57.0296 25.27 57.935 25.4707 58.7096 25.872C59.4936 26.264 60.0956 26.8333 60.5156 27.58C60.945 28.3173 61.1596 29.1807 61.1596 30.17C61.1596 31.1593 60.945 32.018 60.5156 32.746C60.0956 33.474 59.4936 34.034 58.7096 34.426C57.935 34.8087 57.0296 35 55.9936 35H52.8156V25.27H55.9936ZM55.9936 33.698C57.1323 33.698 58.005 33.39 58.6116 32.774C59.2183 32.158 59.5216 31.29 59.5216 30.17C59.5216 29.0407 59.2183 28.1587 58.6116 27.524C58.005 26.8893 57.1323 26.572 55.9936 26.572H54.4116V33.698H55.9936ZM66.0874 35.126C65.3594 35.126 64.7014 34.9627 64.1134 34.636C63.5254 34.3 63.0634 33.8333 62.7274 33.236C62.3914 32.6293 62.2234 31.9293 62.2234 31.136C62.2234 30.352 62.3961 29.6567 62.7414 29.05C63.0867 28.4433 63.5581 27.9767 64.1554 27.65C64.7527 27.3233 65.4201 27.16 66.1574 27.16C66.8947 27.16 67.5621 27.3233 68.1594 27.65C68.7567 27.9767 69.2281 28.4433 69.5734 29.05C69.9187 29.6567 70.0914 30.352 70.0914 31.136C70.0914 31.92 69.9141 32.6153 69.5594 33.222C69.2047 33.8287 68.7194 34.3 68.1034 34.636C67.4967 34.9627 66.8247 35.126 66.0874 35.126ZM66.0874 33.74C66.4981 33.74 66.8807 33.642 67.2354 33.446C67.5994 33.25 67.8934 32.956 68.1174 32.564C68.3414 32.172 68.4534 31.696 68.4534 31.136C68.4534 30.576 68.3461 30.1047 68.1314 29.722C67.9167 29.33 67.6321 29.036 67.2774 28.84C66.9227 28.644 66.5401 28.546 66.1294 28.546C65.7187 28.546 65.3361 28.644 64.9814 28.84C64.6361 29.036 64.3607 29.33 64.1554 29.722C63.9501 30.1047 63.8474 30.576 63.8474 31.136C63.8474 31.9667 64.0574 32.6107 64.4774 33.068C64.9067 33.516 65.4434 33.74 66.0874 33.74ZM82.0291 27.286L79.6351 35H77.9551L76.4011 29.302L74.8471 35H73.1671L70.7591 27.286H72.3831L73.9931 33.488L75.6311 27.286H77.2971L78.8651 33.46L80.4611 27.286H82.0291ZM87.1139 27.16C87.7205 27.16 88.2619 27.286 88.7379 27.538C89.2232 27.79 89.6012 28.1633 89.8719 28.658C90.1425 29.1527 90.2779 29.75 90.2779 30.45V35H88.6959V30.688C88.6959 29.9973 88.5232 29.47 88.1779 29.106C87.8325 28.7327 87.3612 28.546 86.7639 28.546C86.1665 28.546 85.6905 28.7327 85.3359 29.106C84.9905 29.47 84.8179 29.9973 84.8179 30.688V35H83.2219V27.286H84.8179V28.168C85.0792 27.8507 85.4105 27.6033 85.8119 27.426C86.2225 27.2487 86.6565 27.16 87.1139 27.16ZM93.9097 24.64V35H92.3137V24.64H93.9097ZM99.3511 35.126C98.6231 35.126 97.9651 34.9627 97.3771 34.636C96.7891 34.3 96.3271 33.8333 95.9911 33.236C95.6551 32.6293 95.4871 31.9293 95.4871 31.136C95.4871 30.352 95.6597 29.6567 96.0051 29.05C96.3504 28.4433 96.8217 27.9767 97.4191 27.65C98.0164 27.3233 98.6837 27.16 99.4211 27.16C100.158 27.16 100.826 27.3233 101.423 27.65C102.02 27.9767 102.492 28.4433 102.837 29.05C103.182 29.6567 103.355 30.352 103.355 31.136C103.355 31.92 103.178 32.6153 102.823 33.222C102.468 33.8287 101.983 34.3 101.367 34.636C100.76 34.9627 100.088 35.126 99.3511 35.126ZM99.3511 33.74C99.7617 33.74 100.144 33.642 100.499 33.446C100.863 33.25 101.157 32.956 101.381 32.564C101.605 32.172 101.717 31.696 101.717 31.136C101.717 30.576 101.61 30.1047 101.395 29.722C101.18 29.33 100.896 29.036 100.541 28.84C100.186 28.644 99.8037 28.546 99.3931 28.546C98.9824 28.546 98.5997 28.644 98.2451 28.84C97.8997 29.036 97.6244 29.33 97.4191 29.722C97.2137 30.1047 97.1111 30.576 97.1111 31.136C97.1111 31.9667 97.3211 32.6107 97.7411 33.068C98.1704 33.516 98.7071 33.74 99.3511 33.74ZM104.401 31.108C104.401 30.3333 104.559 29.6473 104.877 29.05C105.203 28.4527 105.642 27.9907 106.193 27.664C106.753 27.328 107.369 27.16 108.041 27.16C108.647 27.16 109.175 27.2813 109.623 27.524C110.08 27.7573 110.444 28.0513 110.715 28.406V27.286H112.325V35H110.715V33.852C110.444 34.216 110.075 34.5193 109.609 34.762C109.142 35.0047 108.61 35.126 108.013 35.126C107.35 35.126 106.743 34.958 106.193 34.622C105.642 34.2767 105.203 33.8007 104.877 33.194C104.559 32.578 104.401 31.8827 104.401 31.108ZM110.715 31.136C110.715 30.604 110.603 30.142 110.379 29.75C110.164 29.358 109.879 29.0593 109.525 28.854C109.17 28.6487 108.787 28.546 108.377 28.546C107.966 28.546 107.583 28.6487 107.229 28.854C106.874 29.05 106.585 29.344 106.361 29.736C106.146 30.1187 106.039 30.576 106.039 31.108C106.039 31.64 106.146 32.1067 106.361 32.508C106.585 32.9093 106.874 33.2173 107.229 33.432C107.593 33.6373 107.975 33.74 108.377 33.74C108.787 33.74 109.17 33.6373 109.525 33.432C109.879 33.2267 110.164 32.928 110.379 32.536C110.603 32.1347 110.715 31.668 110.715 31.136ZM113.889 31.108C113.889 30.3333 114.048 29.6473 114.365 29.05C114.692 28.4527 115.13 27.9907 115.681 27.664C116.241 27.328 116.862 27.16 117.543 27.16C118.047 27.16 118.542 27.272 119.027 27.496C119.522 27.7107 119.914 28 120.203 28.364V24.64H121.813V35H120.203V33.838C119.942 34.2113 119.578 34.5193 119.111 34.762C118.654 35.0047 118.126 35.126 117.529 35.126C116.857 35.126 116.241 34.958 115.681 34.622C115.13 34.2767 114.692 33.8007 114.365 33.194C114.048 32.578 113.889 31.8827 113.889 31.108ZM120.203 31.136C120.203 30.604 120.091 30.142 119.867 29.75C119.652 29.358 119.368 29.0593 119.013 28.854C118.658 28.6487 118.276 28.546 117.865 28.546C117.454 28.546 117.072 28.6487 116.717 28.854C116.362 29.05 116.073 29.344 115.849 29.736C115.634 30.1187 115.527 30.576 115.527 31.108C115.527 31.64 115.634 32.1067 115.849 32.508C116.073 32.9093 116.362 33.2173 116.717 33.432C117.081 33.6373 117.464 33.74 117.865 33.74C118.276 33.74 118.658 33.6373 119.013 33.432C119.368 33.2267 119.652 32.928 119.867 32.536C120.091 32.1347 120.203 31.668 120.203 31.136ZM133.412 33.012H129.338L128.638 35H126.972L130.458 25.256H132.306L135.792 35H134.112L133.412 33.012ZM132.964 31.71L131.382 27.188L129.786 31.71H132.964ZM138.904 28.42C139.174 28.0653 139.543 27.7667 140.01 27.524C140.476 27.2813 141.004 27.16 141.592 27.16C142.264 27.16 142.875 27.328 143.426 27.664C143.986 27.9907 144.424 28.4527 144.742 29.05C145.059 29.6473 145.218 30.3333 145.218 31.108C145.218 31.8827 145.059 32.578 144.742 33.194C144.424 33.8007 143.986 34.2767 143.426 34.622C142.875 34.958 142.264 35.126 141.592 35.126C141.004 35.126 140.481 35.0093 140.024 34.776C139.566 34.5333 139.193 34.2347 138.904 33.88V38.668H137.308V27.286H138.904V28.42ZM143.594 31.108C143.594 30.576 143.482 30.1187 143.258 29.736C143.043 29.344 142.754 29.05 142.39 28.854C142.035 28.6487 141.652 28.546 141.242 28.546C140.84 28.546 140.458 28.6487 140.094 28.854C139.739 29.0593 139.45 29.358 139.226 29.75C139.011 30.142 138.904 30.604 138.904 31.136C138.904 31.668 139.011 32.1347 139.226 32.536C139.45 32.928 139.739 33.2267 140.094 33.432C140.458 33.6373 140.84 33.74 141.242 33.74C141.652 33.74 142.035 33.6373 142.39 33.432C142.754 33.2173 143.043 32.9093 143.258 32.508C143.482 32.1067 143.594 31.64 143.594 31.108ZM148.392 28.42C148.663 28.0653 149.031 27.7667 149.498 27.524C149.965 27.2813 150.492 27.16 151.08 27.16C151.752 27.16 152.363 27.328 152.914 27.664C153.474 27.9907 153.913 28.4527 154.23 29.05C154.547 29.6473 154.706 30.3333 154.706 31.108C154.706 31.8827 154.547 32.578 154.23 33.194C153.913 33.8007 153.474 34.2767 152.914 34.622C152.363 34.958 151.752 35.126 151.08 35.126C150.492 35.126 149.969 35.0093 149.512 34.776C149.055 34.5333 148.681 34.2347 148.392 33.88V38.668H146.796V27.286H148.392V28.42ZM153.082 31.108C153.082 30.576 152.97 30.1187 152.746 29.736C152.531 29.344 152.242 29.05 151.878 28.854C151.523 28.6487 151.141 28.546 150.73 28.546C150.329 28.546 149.946 28.6487 149.582 28.854C149.227 29.0593 148.938 29.358 148.714 29.75C148.499 30.142 148.392 30.604 148.392 31.136C148.392 31.668 148.499 32.1347 148.714 32.536C148.938 32.928 149.227 33.2267 149.582 33.432C149.946 33.6373 150.329 33.74 150.73 33.74C151.141 33.74 151.523 33.6373 151.878 33.432C152.242 33.2173 152.531 32.9093 152.746 32.508C152.97 32.1067 153.082 31.64 153.082 31.108Z" fill="white"/>
<path d="M36.3918 25.3126C36.3918 22.9681 35.0426 20.9092 33.0263 19.771L34.1411 17.7611C34.1748 17.7026 34.1964 17.6378 34.2047 17.5708C34.213 17.5037 34.2077 17.4357 34.1892 17.3707C34.1708 17.3057 34.1394 17.2451 34.0971 17.1925C34.0548 17.1398 34.0023 17.0962 33.9428 17.0641C33.8258 16.9992 33.6878 16.9834 33.5591 17.0202C33.4304 17.057 33.3216 17.1433 33.2565 17.2602L32.1141 19.3234C30.3194 18.6187 28.3246 18.6187 26.5298 19.3234L25.3853 17.2602C25.3533 17.2021 25.3101 17.1509 25.2582 17.1096C25.2063 17.0682 25.1467 17.0376 25.0829 17.0194C25.0191 17.0011 24.9524 16.9957 24.8865 17.0034C24.8206 17.0111 24.7569 17.0317 24.699 17.0641C24.6409 17.0962 24.5897 17.1394 24.5483 17.1912C24.507 17.2431 24.4763 17.3027 24.4581 17.3665C24.4399 17.4303 24.4345 17.497 24.4421 17.5629C24.4498 17.6288 24.4705 17.6926 24.5029 17.7504L25.6176 19.771C23.5992 20.9092 22.2628 22.9681 22.2628 25.3126H36.3918ZM38.779 25.3126C39.0238 25.3126 39.2662 25.3609 39.4923 25.4546C39.7185 25.5484 39.9239 25.6858 40.0969 25.859C40.27 26.0322 40.4071 26.2378 40.5006 26.4641C40.5941 26.6903 40.6421 26.9328 40.6418 27.1776V33.7849C40.6421 34.0297 40.5941 34.2722 40.5006 34.4985C40.4071 34.7247 40.27 34.9303 40.0969 35.1035C39.9239 35.2767 39.7185 35.4141 39.4923 35.5079C39.2662 35.6016 39.0238 35.6499 38.779 35.6499C38.2843 35.6499 37.81 35.4534 37.4602 35.1037C37.1105 34.7539 36.914 34.2795 36.914 33.7849V27.1776C36.914 26.683 37.1105 26.2086 37.4602 25.8589C37.81 25.5091 38.2843 25.3126 38.779 25.3126ZM19.865 25.3126C20.3596 25.3126 20.834 25.5091 21.1837 25.8589C21.5335 26.2086 21.7299 26.683 21.7299 27.1776V33.7849C21.7299 34.2795 21.5335 34.7539 21.1837 35.1037C20.834 35.4534 20.3596 35.6499 19.865 35.6499C19.3711 35.6499 18.8974 35.454 18.5477 35.1052C18.1981 34.7563 18.0011 34.2831 18 33.7892V27.1819C17.9994 26.9366 18.0473 26.6936 18.1407 26.4669C18.2342 26.2401 18.3715 26.034 18.5447 25.8604C18.718 25.6867 18.9237 25.549 19.1503 25.455C19.3768 25.361 19.6197 25.3126 19.865 25.3126ZM28.544 37.8303V41.3258C28.544 41.8204 28.3475 42.2948 27.9978 42.6445C27.648 42.9943 27.1737 43.1908 26.679 43.1908C26.1854 43.1896 25.7123 42.9926 25.3638 42.6429C25.0153 42.2932 24.8199 41.8195 24.8205 41.3258V37.8303H23.9679C23.5157 37.8303 23.082 37.6507 22.7622 37.3309C22.4424 37.0111 22.2628 36.5774 22.2628 36.1252V25.8732H36.3918V36.1209C36.3918 36.5732 36.2122 37.0069 35.8924 37.3266C35.5726 37.6464 35.1389 37.826 34.6867 37.826H33.8341V41.3215C33.8341 41.8161 33.6376 42.2905 33.2879 42.6403C32.9381 42.99 32.4638 43.1865 31.9692 43.1865C31.4745 43.1865 31.0002 42.99 30.6504 42.6403C30.3007 42.2905 30.1042 41.8161 30.1042 41.3215V37.8303H28.544Z" fill="#79D900"/>
<path d="M26.0994 22.1331C26.1018 22.1262 26.1018 22.1187 26.0994 22.1118C26.0929 22.1071 26.085 22.1046 26.077 22.1046C26.069 22.1046 26.0612 22.1071 26.0546 22.1118C26.0526 22.1188 26.0526 22.1262 26.0546 22.1331C26.0543 22.1374 26.0549 22.1417 26.0564 22.1457C26.0579 22.1498 26.0603 22.1534 26.0633 22.1564C26.0663 22.1595 26.07 22.1618 26.074 22.1633C26.078 22.1648 26.0823 22.1654 26.0866 22.1651C26.0936 22.1671 26.101 22.1671 26.1079 22.1651C26.1109 22.1576 26.1109 22.1492 26.1079 22.1417L26.0994 22.1331ZM26.4852 21.7068C26.54 21.7615 26.5835 21.8264 26.6132 21.8979C26.6429 21.9694 26.6582 22.0461 26.6582 22.1235C26.6582 22.201 26.6429 22.2776 26.6132 22.3491C26.5835 22.4206 26.54 22.4856 26.4852 22.5402C26.3742 22.6506 26.224 22.7125 26.0674 22.7125C25.9109 22.7125 25.7607 22.6506 25.6497 22.5402C25.5916 22.4862 25.5451 22.4211 25.5128 22.3487C25.4804 22.2764 25.463 22.1982 25.4615 22.119C25.46 22.0397 25.4745 21.961 25.5041 21.8875C25.5337 21.814 25.5778 21.7472 25.6338 21.691C25.6898 21.6349 25.7565 21.5906 25.8299 21.5609C25.9034 21.5311 25.9821 21.5164 26.0613 21.5177C26.1406 21.5189 26.2188 21.5362 26.2912 21.5683C26.3637 21.6004 26.4289 21.6468 26.483 21.7047L26.4852 21.7068Z" fill="white"/>
<path d="M32.615 22.1331C32.6175 22.1262 32.6175 22.1187 32.615 22.1118C32.6085 22.1071 32.6007 22.1046 32.5926 22.1046C32.5846 22.1046 32.5768 22.1071 32.5703 22.1118C32.5682 22.1188 32.5682 22.1262 32.5703 22.1331C32.5699 22.1374 32.5705 22.1417 32.572 22.1457C32.5735 22.1498 32.5759 22.1534 32.5789 22.1564C32.582 22.1595 32.5856 22.1618 32.5896 22.1633C32.5937 22.1648 32.5979 22.1654 32.6022 22.1651C32.6092 22.1671 32.6166 22.1671 32.6235 22.1651C32.6265 22.1576 32.6265 22.1492 32.6235 22.1417L32.615 22.1331ZM33.0008 21.7068C33.105 21.8189 33.1617 21.967 33.1588 22.12C33.156 22.273 33.0938 22.4189 32.9855 22.527C32.8771 22.6351 32.7311 22.6969 32.5781 22.6993C32.4251 22.7018 32.2771 22.6447 32.1653 22.5402C32.1073 22.4862 32.0607 22.4211 32.0284 22.3487C31.9961 22.2764 31.9786 22.1982 31.9772 22.119C31.9757 22.0397 31.9902 21.961 32.0198 21.8875C32.0494 21.814 32.0935 21.7472 32.1494 21.691C32.2054 21.6349 32.2721 21.5906 32.3456 21.5609C32.419 21.5311 32.4977 21.5164 32.577 21.5177C32.6562 21.5189 32.7344 21.5362 32.8068 21.5683C32.8793 21.6004 32.9445 21.6468 32.9987 21.7047L33.0008 21.7068Z" fill="white"/>
<path d="M177.235 32.3711V39.1943" stroke="white" stroke-width="1.5" stroke-linecap="round"/>
<path d="M180.646 38.0586L178.038 40.6661C177.594 41.1101 176.874 41.1101 176.43 40.6661L173.823 38.0586" stroke="white" stroke-width="1.5" stroke-linecap="round"/>
<path d="M186.275 34.6463C187.012 33.9239 187.469 32.917 187.469 31.8033C187.469 29.6051 185.687 27.8232 183.489 27.8232C183.271 27.8232 183.056 27.8408 182.847 27.8747C182.318 23.9919 178.989 21 174.96 21C170.564 21 167 24.564 167 28.9603C167 31.1878 167.915 33.2015 169.389 34.6463" stroke="white" stroke-width="1.5" stroke-linecap="round"/>
</svg>
