<svg xmlns="http://www.w3.org/2000/svg" width="206.793" height="61.371" viewBox="0 0 206.793 61.371"><defs><style>.a{fill:none;}.b{fill:#fff;}</style></defs><g transform="translate(-419.056 -504.814)"><g transform="translate(419.056 504.814)"><path d="M199.134,61.371H7.659A7.688,7.688,0,0,1,0,53.7V7.671A7.688,7.688,0,0,1,7.659,0H199.134a7.688,7.688,0,0,1,7.659,7.671V53.7a7.688,7.688,0,0,1-7.659,7.671"/><path class="a" d="M199.134,0H7.659A7.688,7.688,0,0,0,0,7.671V53.7a7.688,7.688,0,0,0,7.659,7.671H199.134a7.688,7.688,0,0,0,7.659-7.671V7.671A7.688,7.688,0,0,0,199.134,0m0,1.227a6.446,6.446,0,0,1,6.434,6.444V53.7a6.446,6.446,0,0,1-6.434,6.445H7.659A6.447,6.447,0,0,1,1.225,53.7V7.671A6.447,6.447,0,0,1,7.659,1.227H199.134"/></g><g transform="translate(435.562 514.345)"><path class="b" d="M40.658,24.287A9.318,9.318,0,0,1,45.1,16.468,9.544,9.544,0,0,0,37.58,12.4c-3.162-.333-6.229,1.892-7.839,1.892-1.643,0-4.123-1.86-6.8-1.805a10.007,10.007,0,0,0-8.423,5.137C10.879,23.935,13.6,33.2,17.085,38.3c1.746,2.5,3.785,5.284,6.455,5.185,2.612-.108,3.588-1.665,6.74-1.665,3.123,0,4.039,1.665,6.762,1.6,2.8-.045,4.568-2.508,6.253-5.026a20.627,20.627,0,0,0,2.86-5.824A9.007,9.007,0,0,1,40.658,24.287Z" transform="translate(-12.792 -2.479)"/><path class="b" d="M29.249,12.79a9.171,9.171,0,0,0,2.1-6.573,9.343,9.343,0,0,0-6.041,3.125,8.728,8.728,0,0,0-2.154,6.33A7.717,7.717,0,0,0,29.249,12.79Z" transform="translate(-6.527 -6.217)"/></g><g transform="translate(483.17 533.287)"><path class="b" d="M60.469,39.587h-3.65l-2-6.283h-6.95l-1.9,6.283H42.41L49.3,18.2h4.253Zm-6.253-8.92-1.808-5.586q-.287-.856-1.079-4.03h-.064q-.316,1.365-1.016,4.03l-1.776,5.586Z" transform="translate(-42.41 -17.883)"/><path class="b" d="M70.275,29.55a8.765,8.765,0,0,1-2.127,6.219A6.218,6.218,0,0,1,63.419,37.8a4.729,4.729,0,0,1-4.38-2.189h-.064v8.125H55.548V27.105q0-2.474-.127-5.078h3.014l.191,2.445h.064a6.1,6.1,0,0,1,9.759-.6A8.5,8.5,0,0,1,70.275,29.55Zm-3.491.125a6.35,6.35,0,0,0-1.016-3.713,3.509,3.509,0,0,0-2.983-1.524,3.564,3.564,0,0,0-2.3.841,3.9,3.9,0,0,0-1.349,2.207,4.487,4.487,0,0,0-.159,1.045V31.1a4.121,4.121,0,0,0,1.032,2.842A3.42,3.42,0,0,0,62.69,35.1,3.508,3.508,0,0,0,65.7,33.612,6.565,6.565,0,0,0,66.784,29.676Z" transform="translate(-34.507 -15.748)"/><path class="b" d="M81.311,29.55a8.759,8.759,0,0,1-2.128,6.219A6.212,6.212,0,0,1,74.456,37.8a4.724,4.724,0,0,1-4.379-2.189h-.064v8.125H66.586V27.105q0-2.474-.127-5.078h3.014l.191,2.445h.064a6.1,6.1,0,0,1,9.76-.6A8.522,8.522,0,0,1,81.311,29.55Zm-3.491.125A6.351,6.351,0,0,0,76.8,25.963a3.5,3.5,0,0,0-2.982-1.524,3.568,3.568,0,0,0-2.3.841,3.9,3.9,0,0,0-1.347,2.207,4.575,4.575,0,0,0-.159,1.045V31.1a4.134,4.134,0,0,0,1.029,2.842A3.428,3.428,0,0,0,73.726,35.1a3.508,3.508,0,0,0,3.014-1.492A6.565,6.565,0,0,0,77.82,29.676Z" transform="translate(-27.802 -15.748)"/><path class="b" d="M93.054,33.707a5.7,5.7,0,0,1-1.9,4.443,8.421,8.421,0,0,1-5.827,1.873,10.2,10.2,0,0,1-5.544-1.333l.794-2.856A9.394,9.394,0,0,0,85.531,37.2a4.684,4.684,0,0,0,3.017-.874,2.855,2.855,0,0,0,1.077-2.337,2.98,2.98,0,0,0-.889-2.192,8.263,8.263,0,0,0-2.951-1.654q-5.618-2.1-5.616-6.134a5.428,5.428,0,0,1,1.969-4.322A7.762,7.762,0,0,1,87.375,18a10.383,10.383,0,0,1,4.854,1.016l-.857,2.794a8.423,8.423,0,0,0-4.094-.984,4.144,4.144,0,0,0-2.823.889,2.54,2.54,0,0,0-.857,1.937,2.615,2.615,0,0,0,.982,2.094A11.1,11.1,0,0,0,87.693,27.4,10.558,10.558,0,0,1,91.755,30,5.433,5.433,0,0,1,93.054,33.707Z" transform="translate(-19.709 -18.001)"/><path class="b" d="M98.638,25.932H94.86v7.489q0,2.857,2,2.856a6.1,6.1,0,0,0,1.522-.159l.095,2.6a7.764,7.764,0,0,1-2.665.379,4.112,4.112,0,0,1-3.175-1.238A6.08,6.08,0,0,1,91.494,33.7V25.929h-2.25V23.357h2.25V20.533l3.366-1.016v3.84h3.777v2.575Z" transform="translate(-13.963 -17.08)"/><path class="b" d="M111.4,29.612a8.461,8.461,0,0,1-2.032,5.84,7.254,7.254,0,0,1-5.652,2.348,6.9,6.9,0,0,1-5.409-2.252,8.2,8.2,0,0,1-2.016-5.681A8.378,8.378,0,0,1,98.37,24a7.193,7.193,0,0,1,5.6-2.286,7.044,7.044,0,0,1,5.459,2.254A8.109,8.109,0,0,1,111.4,29.612Zm-3.556.111a6.938,6.938,0,0,0-.919-3.66,3.385,3.385,0,0,0-3.077-1.845,3.436,3.436,0,0,0-3.142,1.845,7.071,7.071,0,0,0-.919,3.724,6.928,6.928,0,0,0,.919,3.658,3.5,3.5,0,0,0,6.189-.032A6.963,6.963,0,0,0,107.844,29.723Z" transform="translate(-9.682 -15.747)"/><path class="b" d="M115.739,25.042a5.951,5.951,0,0,0-1.08-.095,3.238,3.238,0,0,0-2.794,1.366,5.135,5.135,0,0,0-.857,3.046v8.093h-3.425l.032-10.567q0-2.667-.129-4.856h2.985l.125,2.951h.095a5.275,5.275,0,0,1,1.713-2.443,4.144,4.144,0,0,1,2.477-.826,5.5,5.5,0,0,1,.857.063v3.268Z" transform="translate(-2.882 -15.748)"/><path class="b" d="M127.336,29.021a8.037,8.037,0,0,1-.125,1.554H116.93a4.475,4.475,0,0,0,1.492,3.493,5.093,5.093,0,0,0,3.363,1.079,11.371,11.371,0,0,0,4.16-.73l.537,2.379a12.861,12.861,0,0,1-5.171.953,7.491,7.491,0,0,1-5.636-2.111,7.8,7.8,0,0,1-2.046-5.665,8.837,8.837,0,0,1,1.906-5.808,6.568,6.568,0,0,1,5.393-2.474,5.748,5.748,0,0,1,5.049,2.474A8.342,8.342,0,0,1,127.336,29.021Zm-3.268-.889A4.656,4.656,0,0,0,123.4,25.5a2.994,2.994,0,0,0-2.731-1.429,3.251,3.251,0,0,0-2.728,1.4,5.114,5.114,0,0,0-1.014,2.665h7.138Z" transform="translate(0.848 -15.758)"/></g><g transform="translate(485.205 514.89)"><path class="b" d="M52.314,11.93a5.277,5.277,0,0,1-1.7,4.272,6.764,6.764,0,0,1-4.473,1.325,20.741,20.741,0,0,1-2.464-.125V7.065a18.184,18.184,0,0,1,2.9-.219,6.255,6.255,0,0,1,4.163,1.2A4.852,4.852,0,0,1,52.314,11.93Zm-1.776.047a3.842,3.842,0,0,0-.974-2.823,3.84,3.84,0,0,0-2.847-.982,7.129,7.129,0,0,0-1.357.109V16.14a8.894,8.894,0,0,0,1.138.047,3.985,3.985,0,0,0,2.985-1.075A4.306,4.306,0,0,0,50.538,11.977Z" transform="translate(-43.676 -6.38)"/><path class="b" d="M57.713,12.5a4.156,4.156,0,0,1-1,2.869,3.563,3.563,0,0,1-2.776,1.154,3.386,3.386,0,0,1-2.659-1.108,4.034,4.034,0,0,1-.989-2.79,4.116,4.116,0,0,1,1.021-2.884,3.54,3.54,0,0,1,2.752-1.122,3.465,3.465,0,0,1,2.683,1.106A4,4,0,0,1,57.713,12.5Zm-1.747.055a3.427,3.427,0,0,0-.452-1.8A1.664,1.664,0,0,0,54,9.853a1.69,1.69,0,0,0-1.545.907,3.473,3.473,0,0,0-.452,1.829,3.427,3.427,0,0,0,.452,1.8,1.7,1.7,0,0,0,1.529.907,1.681,1.681,0,0,0,1.511-.923A3.405,3.405,0,0,0,55.966,12.558Z" transform="translate(-39.657 -5.3)"/><path class="b" d="M66.914,8.719,64.543,16.3H63l-.982-3.29a24.628,24.628,0,0,1-.609-2.448h-.031a17.924,17.924,0,0,1-.609,2.448L59.725,16.3H58.164L55.935,8.719h1.731l.857,3.6q.311,1.278.514,2.432h.031q.188-.95.625-2.416l1.075-3.617h1.373l1.03,3.54q.374,1.295.608,2.495h.047a23.835,23.835,0,0,1,.514-2.495l.919-3.54h1.654Z" transform="translate(-36.23 -5.242)"/><path class="b" d="M70.708,16.356H69.023v-4.34q0-2.006-1.527-2.006a1.52,1.52,0,0,0-1.217.551,1.956,1.956,0,0,0-.468,1.3v4.494H64.127V10.944q0-1-.061-2.168h1.48l.079,1.185h.047a2.434,2.434,0,0,1,.873-.915,2.847,2.847,0,0,1,1.527-.426,2.418,2.418,0,0,1,1.763.686,3.335,3.335,0,0,1,.873,2.511Z" transform="translate(-31.291 -5.302)"/><path class="b" d="M71.724,17.61H70.041V6.556h1.683Z" transform="translate(-27.662 -6.556)"/><path class="b" d="M80.062,12.5a4.156,4.156,0,0,1-1,2.869,3.565,3.565,0,0,1-2.776,1.154,3.382,3.382,0,0,1-2.659-1.108,4.034,4.034,0,0,1-.989-2.79,4.116,4.116,0,0,1,1.021-2.884,3.539,3.539,0,0,1,2.75-1.122A3.469,3.469,0,0,1,79.1,9.729,4,4,0,0,1,80.062,12.5Zm-1.749.055a3.427,3.427,0,0,0-.452-1.8,1.661,1.661,0,0,0-1.509-.907,1.686,1.686,0,0,0-1.545.907,3.473,3.473,0,0,0-.452,1.829,3.427,3.427,0,0,0,.452,1.8,1.7,1.7,0,0,0,1.529.907,1.679,1.679,0,0,0,1.509-.923A3.391,3.391,0,0,0,78.314,12.558Z" transform="translate(-26.082 -5.3)"/><path class="b" d="M84.681,16.355H83.168l-.125-.873H83a2.594,2.594,0,0,1-2.213,1.045,2.284,2.284,0,0,1-1.73-.686A2.152,2.152,0,0,1,78.46,14.3a2.354,2.354,0,0,1,1.162-2.12,6.031,6.031,0,0,1,3.268-.717v-.141q0-1.5-1.574-1.5a3.524,3.524,0,0,0-1.975.561L79,9.277a4.859,4.859,0,0,1,2.6-.654q2.97,0,2.974,3.134v2.79A11.834,11.834,0,0,0,84.681,16.355Zm-1.749-2.6V12.582q-2.787-.048-2.787,1.527a1.141,1.141,0,0,0,.323.889,1.178,1.178,0,0,0,.823.3,1.7,1.7,0,0,0,1.03-.35,1.438,1.438,0,0,0,.611-1.193Z" transform="translate(-22.548 -5.3)"/><path class="b" d="M91.018,17.61H89.523l-.079-1.217H89.4a2.519,2.519,0,0,1-2.434,1.389,2.852,2.852,0,0,1-2.276-1.075,4.189,4.189,0,0,1-.9-2.79,4.393,4.393,0,0,1,.982-2.979,3.02,3.02,0,0,1,2.339-1.061,2.271,2.271,0,0,1,2.135,1.029h.032V6.556h1.686v9.013Q90.959,16.675,91.018,17.61Zm-1.746-3.2V13.151a2.48,2.48,0,0,0-.047-.53,1.918,1.918,0,0,0-.609-1.021,1.656,1.656,0,0,0-1.127-.413,1.729,1.729,0,0,0-1.482.749,3.21,3.21,0,0,0-.54,1.918,2.992,2.992,0,0,0,.518,1.824,1.734,1.734,0,0,0,1.472.747,1.623,1.623,0,0,0,1.331-.624A2.076,2.076,0,0,0,89.273,14.415Z" transform="translate(-19.313 -6.556)"/><path class="b" d="M100.052,12.5a4.156,4.156,0,0,1-1,2.869,3.56,3.56,0,0,1-2.776,1.154,3.391,3.391,0,0,1-2.659-1.108,4.033,4.033,0,0,1-.989-2.79,4.116,4.116,0,0,1,1.021-2.884,3.541,3.541,0,0,1,2.753-1.122,3.462,3.462,0,0,1,2.681,1.106A4,4,0,0,1,100.052,12.5Zm-1.746.055a3.427,3.427,0,0,0-.452-1.8,1.666,1.666,0,0,0-1.513-.907,1.693,1.693,0,0,0-1.545.907,3.473,3.473,0,0,0-.452,1.829,3.427,3.427,0,0,0,.452,1.8,1.721,1.721,0,0,0,3.041-.016A3.42,3.42,0,0,0,98.307,12.558Z" transform="translate(-13.94 -5.3)"/><path class="b" d="M105.392,16.356h-1.683v-4.34q0-2.006-1.529-2.006a1.515,1.515,0,0,0-1.215.551,1.948,1.948,0,0,0-.468,1.3v4.494H98.811V10.944q0-1-.059-2.168h1.479l.079,1.185h.047a2.459,2.459,0,0,1,.873-.915,2.853,2.853,0,0,1,1.529-.426,2.417,2.417,0,0,1,1.762.686,3.329,3.329,0,0,1,.873,2.511Z" transform="translate(-10.222 -5.302)"/><path class="b" d="M111.68,10.694h-1.855v3.681c0,.936.33,1.4.982,1.4a2.967,2.967,0,0,0,.751-.079l.043,1.278a3.785,3.785,0,0,1-1.308.188,2.014,2.014,0,0,1-1.558-.608,2.972,2.972,0,0,1-.563-2.043V10.694h-1.108V9.432h1.108V8.043l1.651-.5V9.43h1.855v1.263Z" transform="translate(-5.173 -5.955)"/><path class="b" d="M117.971,17.61h-1.686V13.3q0-2.037-1.525-2.038a1.608,1.608,0,0,0-1.607,1.181,2.116,2.116,0,0,0-.079.606v4.557H111.39V6.556h1.683v4.567h.032a2.546,2.546,0,0,1,2.276-1.246,2.348,2.348,0,0,1,1.733.686,3.451,3.451,0,0,1,.857,2.541V17.61Z" transform="translate(-2.546 -6.556)"/><path class="b" d="M123.753,12.213a4.069,4.069,0,0,1-.063.764h-5.052a2.209,2.209,0,0,0,.731,1.715,2.51,2.51,0,0,0,1.654.53,5.581,5.581,0,0,0,2.043-.358l.264,1.17a6.344,6.344,0,0,1-2.543.468,3.673,3.673,0,0,1-2.766-1.037,3.819,3.819,0,0,1-1-2.782,4.337,4.337,0,0,1,.936-2.853A3.222,3.222,0,0,1,120.6,8.614a2.818,2.818,0,0,1,2.477,1.215A4.045,4.045,0,0,1,123.753,12.213Zm-1.607-.436a2.268,2.268,0,0,0-.326-1.294,1.471,1.471,0,0,0-1.341-.7,1.6,1.6,0,0,0-1.341.686,2.55,2.55,0,0,0-.5,1.31h3.507Z" transform="translate(0.871 -5.306)"/></g></g></svg>