<svg xmlns="http://www.w3.org/2000/svg" xmlns:xlink="http://www.w3.org/1999/xlink" width="206.793" height="61.371" viewBox="0 0 206.793 61.371"><defs><style>.a{fill:none;}.b{fill:#fff;}.c{fill:#00c1ff;}.d{fill:url(#a);}.e{fill:url(#b);}.f{fill:url(#c);}.g{fill:url(#d);}.h{fill:url(#e);}.i{fill:url(#f);}.j{fill:url(#g);}.k{fill:url(#h);}.l{fill:url(#i);}.m{fill:url(#j);}</style><linearGradient id="a" x1="0.849" y1="0.31" x2="0.361" y2="0.799" gradientUnits="objectBoundingBox"><stop offset="0" stop-color="#00a0ff"/><stop offset="0.007" stop-color="#00a1ff"/><stop offset="0.26" stop-color="#00beff"/><stop offset="0.512" stop-color="#00d2ff"/><stop offset="0.76" stop-color="#00dfff"/><stop offset="1" stop-color="#00e3ff"/></linearGradient><linearGradient id="b" x1="0.97" y1="0.436" x2="-1.177" y2="0.436" gradientUnits="objectBoundingBox"><stop offset="0" stop-color="#ffe000"/><stop offset="0.409" stop-color="#ffbd00"/><stop offset="0.775" stop-color="orange"/><stop offset="1" stop-color="#ff9c00"/></linearGradient><linearGradient id="c" x1="0.761" y1="0.213" x2="-0.443" y2="1.411" gradientUnits="objectBoundingBox"><stop offset="0" stop-color="#ff3a44"/><stop offset="1" stop-color="#c31162"/></linearGradient><linearGradient id="d" x1="-0.17" y1="-0.275" x2="0.367" y2="0.26" gradientUnits="objectBoundingBox"><stop offset="0" stop-color="#32a071"/><stop offset="0.068" stop-color="#2da771"/><stop offset="0.476" stop-color="#15cf74"/><stop offset="0.801" stop-color="#06e775"/><stop offset="1" stop-color="#00f076"/></linearGradient><linearGradient id="e" x1="0.624" y1="0.038" x2="-0.364" y2="1.027" gradientUnits="objectBoundingBox"><stop offset="0" stop-color="#cc2e36"/><stop offset="1" stop-color="#9c0e4e"/></linearGradient><linearGradient id="f" x1="5.233" y1="-7.998" x2="-1.121" y2="-1.634" gradientUnits="objectBoundingBox"><stop offset="0" stop-color="#008de0"/><stop offset="0.007" stop-color="#008de0"/><stop offset="0.26" stop-color="#00a7e0"/><stop offset="0.512" stop-color="#00b8e0"/><stop offset="0.76" stop-color="#00c4e0"/><stop offset="1" stop-color="#00c7e0"/></linearGradient><linearGradient id="g" x1="0.943" y1="-0.195" x2="-2.414" y2="-0.195" gradientUnits="objectBoundingBox"><stop offset="0" stop-color="#e0c500"/><stop offset="0.409" stop-color="#e0a600"/><stop offset="0.775" stop-color="#e09100"/><stop offset="1" stop-color="#e08900"/></linearGradient><linearGradient id="h" x1="0.944" y1="0.999" x2="-2.414" y2="0.999" gradientUnits="objectBoundingBox"><stop offset="0" stop-color="#ffe840"/><stop offset="0.409" stop-color="#ffce40"/><stop offset="0.775" stop-color="#ffbc40"/><stop offset="1" stop-color="#ffb540"/></linearGradient><linearGradient id="i" x1="5.219" y1="0.865" x2="-1.113" y2="6.933" gradientUnits="objectBoundingBox"><stop offset="0" stop-color="#40b8ff"/><stop offset="0.007" stop-color="#40b9ff"/><stop offset="0.26" stop-color="#40ceff"/><stop offset="0.512" stop-color="#40ddff"/><stop offset="0.76" stop-color="#40e7ff"/><stop offset="1" stop-color="#40eaff"/></linearGradient><linearGradient id="j" x1="-0.137" y1="-0.184" x2="0.304" y2="0.257" gradientUnits="objectBoundingBox"><stop offset="0" stop-color="#65b895"/><stop offset="0.068" stop-color="#62bd95"/><stop offset="0.476" stop-color="#50db97"/><stop offset="0.801" stop-color="#44ed98"/><stop offset="1" stop-color="#40f498"/></linearGradient></defs><path d="M199.134,61.371H7.659A7.688,7.688,0,0,1,0,53.7V7.671A7.688,7.688,0,0,1,7.659,0H199.134a7.688,7.688,0,0,1,7.659,7.671V53.7a7.688,7.688,0,0,1-7.659,7.671"/><path class="a" d="M199.134,0H7.659A7.688,7.688,0,0,0,0,7.671V53.7a7.688,7.688,0,0,0,7.659,7.671H199.134a7.688,7.688,0,0,0,7.659-7.671V7.671A7.688,7.688,0,0,0,199.134,0m0,1.227a6.446,6.446,0,0,1,6.434,6.444V53.7a6.446,6.446,0,0,1-6.434,6.445H7.659A6.447,6.447,0,0,1,1.225,53.7V7.671A6.447,6.447,0,0,1,7.659,1.227H199.134"/><path class="b" d="M927.918,157.947a4.158,4.158,0,0,1-1.141,3.073,4.453,4.453,0,0,1-3.377,1.362,4.809,4.809,0,1,1,0-9.617,4.734,4.734,0,0,1,1.887.386,3.791,3.791,0,0,1,1.437,1.028l-.808.81A3.1,3.1,0,0,0,923.4,153.9a3.677,3.677,0,1,0,2.567,6.326,2.9,2.9,0,0,0,.771-1.865H923.4v-1.106h4.454a3.934,3.934,0,0,1,.064.695" transform="translate(-855.282 -142.23)"/><path class="b" d="M925.85,155.875H925.7a4,4,0,0,1-1.1,2.964h0a4.3,4.3,0,0,1-3.266,1.315,4.655,4.655,0,1,1,0-9.311,4.583,4.583,0,0,1,1.826.373,3.642,3.642,0,0,1,1.38.987l.117-.1-.108-.108-.808.81.108.108.118-.1a3.259,3.259,0,0,0-2.634-1.147,3.83,3.83,0,1,0,2.675,6.588,3.055,3.055,0,0,0,.815-1.96l.014-.167h-3.351v-.8h4.3v-.153l-.151.027a3.749,3.749,0,0,1,.062.668H926a4.064,4.064,0,0,0-.066-.722l-.023-.126H921.18v1.413h3.491v-.153l-.153-.013a2.75,2.75,0,0,1-.726,1.769,3.5,3.5,0,0,1-4.862,0,3.7,3.7,0,0,1,0-5.089,3.334,3.334,0,0,1,2.4-.979,2.947,2.947,0,0,1,2.4,1.037l.108.128.926-.928.1-.1-.09-.107a3.936,3.936,0,0,0-1.494-1.071,4.886,4.886,0,0,0-1.947-.4,4.962,4.962,0,1,0,0,9.924,4.61,4.61,0,0,0,3.487-1.41l-.111-.106.108.109A4.314,4.314,0,0,0,926,155.875h-.153m7.06-3.845h-4.185v2.919H932.5v1.106h-3.775v2.919h4.185V160.1h-5.365V150.9h5.365v1.131" transform="translate(-853.215 -140.159)"/><path class="b" d="M1081.27,154.814v-.153h-4.339v3.226h3.775v.8h-3.775v3.226h4.186v.824h-5.059v-8.9h5.059v.977h.153v0h.153V153.53h-5.672v9.512h5.672V161.6h-4.185v-2.612h3.774V157.58h-3.774v-2.612h4.185v-.153h-.153m4.98,8.075h-1.182v-8.075H1082.5v-1.131h6.316v1.131h-2.567v8.075" transform="translate(-1001.574 -142.943)"/><path class="b" d="M1175.323,162.889v-.153h-1.029v-8.075h-2.567v-.824h6.009v.824h-2.567v8.228h.153v0h.153v-7.921h2.567V153.53h-6.622v1.438h2.567v8.075h1.488v-.153h-.153m7.137,0v-9.206h1.181v9.206h-1.181" transform="translate(-1090.647 -142.943)"/><path class="b" d="M1329.439,162.889h.153v-9.052h.874v8.9h-1.027v.153h0v.153h1.334V153.53h-1.487v9.512h.153v-.153m6.419,0h-1.182v-8.075h-2.567v-1.131h6.316v1.131h-2.567v8.075" transform="translate(-1237.626 -142.943)"/><path class="b" d="M1371.917,162.176v-.154h-1.029v-8.075h-2.567v-.824h6.009v.824h-2.567v8.228h.153v0h.153v-7.921h2.567v-1.438h-6.622v1.438h2.567v8.075h1.488v-.153h-.153m8.656-1.96a3.531,3.531,0,0,0,4.993,0,3.927,3.927,0,0,0,0-5.285,3.53,3.53,0,0,0-4.993,0,3.933,3.933,0,0,0,0,5.285Zm5.867.771a4.766,4.766,0,0,1-6.739,0,4.979,4.979,0,0,1,0-6.826,4.75,4.75,0,0,1,6.733.006,4.963,4.963,0,0,1,.006,6.82Z" transform="translate(-1273.685 -142.23)"/><path class="b" d="M1518.009,158.144l-.109.108a3.683,3.683,0,0,0,5.211,0,4.081,4.081,0,0,0,0-5.5,3.683,3.683,0,0,0-5.211,0,4.085,4.085,0,0,0,0,5.5l.109-.108.109-.108a3.78,3.78,0,0,1,0-5.069,3.378,3.378,0,0,1,4.776,0,3.776,3.776,0,0,1,0,5.069,3.378,3.378,0,0,1-4.776,0Zm5.867.771-.109-.107a4.615,4.615,0,0,1-6.52,0l0,0,0,0a4.827,4.827,0,0,1,0-6.613,4.6,4.6,0,0,1,6.514.007,4.81,4.81,0,0,1,.006,6.606l.109.107.11.107a5.116,5.116,0,0,0-.006-7.034,4.9,4.9,0,0,0-6.953-.006h0a5.134,5.134,0,0,0,0,7.041l0,0,0,0a4.919,4.919,0,0,0,6.959,0Zm3.011,1.19V150.9h1.438l4.467,7.161h.051l-.051-1.774V150.9h1.182V160.1h-1.233l-4.673-7.508h-.051l.051,1.775V160.1h-1.18" transform="translate(-1411.121 -140.159)"/><path class="b" d="M964.633,162.889h.153v-9.052h1.2L970.452,161h.293l-.055-1.93v-5.232h.875v8.9h-.994l-4.673-7.508H965.6l.055,1.931v5.578h-1.027v.153h0v.153h1.333v-5.89l-.051-1.776-.153,0v.153h.051v-.153l-.13.082,4.718,7.58h1.471V153.53h-1.488v5.543l.051,1.776.153,0v-.153h-.051v.153l.13-.081-4.512-7.233H964.48v9.512h.153v-.153m48.038,26.083h2.858v-19.18h-2.858Zm25.745-12.271-3.277,8.316h-.1l-3.4-8.316h-3.079l5.1,11.623-2.907,6.465h2.982l7.858-18.088Zm-16.21,10.093c-.937,0-2.242-.469-2.242-1.629,0-1.48,1.627-2.048,3.03-2.048a5.08,5.08,0,0,1,2.612.642A3.467,3.467,0,0,1,1022.207,186.793Zm.345-10.512a5.365,5.365,0,0,0-5.1,2.937l2.537,1.061a2.708,2.708,0,0,1,2.612-1.407,2.753,2.753,0,0,1,3.005,2.468v.2a6.312,6.312,0,0,0-2.981-.74c-2.734,0-5.519,1.5-5.519,4.318,0,2.566,2.243,4.22,4.755,4.22a4.033,4.033,0,0,0,3.647-1.875h.1v1.48h2.759v-7.354c0-3.4-2.537-5.305-5.813-5.305Zm-17.665,2.754h-4.065v-6.574h4.065a3.288,3.288,0,1,1,0,6.574Zm-.074-9.244h-6.849v19.18h2.857V181.7h3.992a5.965,5.965,0,1,0,0-11.913ZM967.466,186.8a3.97,3.97,0,0,1,0-7.91c1.949,0,3.479,1.681,3.479,3.979a3.644,3.644,0,0,1-3.479,3.93Zm3.282-9.022h-.1a4.512,4.512,0,0,0-3.43-1.458,6.532,6.532,0,0,0,0,13.051,4.44,4.44,0,0,0,3.43-1.483h.1v.939c0,2.5-1.333,3.832-3.479,3.832a3.607,3.607,0,0,1-3.283-2.324l-2.492,1.038a6.209,6.209,0,0,0,5.775,3.856c3.356,0,6.194-1.978,6.194-6.8V176.712h-2.715Zm4.689,11.2H978.3V169.791h-2.863Zm7.083-6.328a3.576,3.576,0,0,1,3.405-3.806,2.519,2.519,0,0,1,2.418,1.385Zm8.884-2.175a6.056,6.056,0,0,0-5.578-4.153,6.2,6.2,0,0,0-6.144,6.525,6.38,6.38,0,0,0,6.465,6.525,6.479,6.479,0,0,0,5.43-2.892l-2.221-1.483a3.719,3.719,0,0,1-3.209,1.8,3.315,3.315,0,0,1-3.159-1.977l8.711-3.609Zm-69.4-2.15v2.768h6.614a5.781,5.781,0,0,1-1.505,3.485A6.763,6.763,0,0,1,922,186.6a7.367,7.367,0,0,1,0-14.732,7.042,7.042,0,0,1,4.985,1.978l1.95-1.953A9.632,9.632,0,0,0,922,169.1a10.135,10.135,0,1,0,0,20.269,8.962,8.962,0,0,0,9.452-9.318,9,9,0,0,0-.148-1.73Zm16.971,8.478a3.965,3.965,0,1,1,3.677-3.955A3.773,3.773,0,0,1,938.971,186.8Zm0-10.48a6.525,6.525,0,1,0,6.539,6.525A6.427,6.427,0,0,0,938.971,176.316Zm14.266,10.48a3.965,3.965,0,1,1,3.677-3.955,3.773,3.773,0,0,1-3.677,3.955Zm0-10.48a6.525,6.525,0,1,0,6.54,6.525,6.426,6.426,0,0,0-6.54-6.525Z" transform="translate(-848.867 -142.943)"/><path class="c" d="M222.362,162.632a2.966,2.966,0,0,0-.821,2.268v33.484a3.075,3.075,0,0,0,.709,2.156l.114.109h0a1.967,1.967,0,0,0,1.354.5,3.524,3.524,0,0,0,1.716-.515l22.234-12.654,7.637-4.347a2.859,2.859,0,0,0,1.605-1.989v0a2.858,2.858,0,0,0-1.605-1.99l-7.638-4.346L225.433,162.65a3.53,3.53,0,0,0-1.719-.516,1.97,1.97,0,0,0-1.352.5Z" transform="translate(-206.265 -150.954)"/><path class="d" d="M.938-513.549l-.114-.109a3.075,3.075,0,0,1-.709-2.156V-549.3a2.966,2.966,0,0,1,.821-2.268l18.979,19.009L.938-513.549" transform="translate(15.161 563.244)"/><path class="e" d="M7.013-171.891.686-178.23l6.327-6.337,7.638,4.346a2.858,2.858,0,0,1,1.605,1.99v0a2.859,2.859,0,0,1-1.605,1.989l-7.637,4.347" transform="translate(34.39 208.916)"/><path class="f" d="M1.793-263.51a1.968,1.968,0,0,1-1.353-.5h0l18.977-19.008,6.327,6.338L3.509-264.025a3.523,3.523,0,0,1-1.716.515" transform="translate(15.659 313.704)"/><path class="g" d="M19.169-264.1.19-283.107a1.97,1.97,0,0,1,1.352-.5,3.53,3.53,0,0,1,1.719.516L25.5-270.435,19.169-264.1" transform="translate(15.907 294.785)"/><path class="h" d="M2.258-181.7A1.972,1.972,0,0,1,.9-182.2h0l0,0-.1-.1-.01-.01.114-.114a1.967,1.967,0,0,0,1.354.5,3.523,3.523,0,0,0,1.716-.515l22.234-12.654.142.143-.144.082L3.973-182.216A3.657,3.657,0,0,1,2.4-181.7q-.07,0-.14,0" transform="translate(15.195 232.119)"/><path class="i" d="M.824-32.926a3.074,3.074,0,0,1-.709-2.156v-.224a3.075,3.075,0,0,0,.709,2.156l.114.109-.114.114" transform="translate(15.161 82.735)"/><path class="j" d="M.784-87.648l-.142-.143,7.637-4.347a2.859,2.859,0,0,0,1.606-1.989,1.9,1.9,0,0,1-.177.791,3.289,3.289,0,0,1-1.428,1.422L.784-87.648" transform="translate(40.761 124.816)"/><path class="k" d="M9.876-88.2a2.858,2.858,0,0,0-1.605-1.99L.633-94.541l.142-.143h0l7.495,4.265A2.694,2.694,0,0,1,9.876-88.2" transform="translate(40.769 118.891)"/><path class="l" d="M.115-32.377v-.234c0-.085,0-.167.007-.247v0a.011.011,0,0,1,0,0v-.009a2.926,2.926,0,0,1,.7-1.882l.112.113a2.966,2.966,0,0,0-.821,2.268" transform="translate(15.161 46.323)"/><path class="m" d="M26.206-181.509,3.972-194.163a3.53,3.53,0,0,0-1.719-.516,1.97,1.97,0,0,0-1.352.5l-.112-.113q.052-.056.109-.107l0,0a1.969,1.969,0,0,1,1.34-.5h.011a3.529,3.529,0,0,1,1.719.516l22.377,12.734h0l-.142.143" transform="translate(15.196 205.859)"/></svg>