<svg xmlns="http://www.w3.org/2000/svg" xmlns:xlink="http://www.w3.org/1999/xlink" width="196.274" height="82" viewBox="0 0 196.274 82"><defs><style>.a{fill:#112430;}.b{fill:url(#c);}.c{fill:#fff;}.d{filter:url(#l);}.e{filter:url(#j);}.f{filter:url(#h);}.g{filter:url(#f);}.h{filter:url(#d);}.i{filter:url(#a);}</style><filter id="a" x="0" y="0" width="82" height="82" filterUnits="userSpaceOnUse"><feOffset dy="3" input="SourceAlpha"/><feGaussianBlur stdDeviation="3" result="b"/><feFlood flood-color="#00d88f" flood-opacity="0.051"/><feComposite operator="in" in2="b"/><feComposite in="SourceGraphic"/></filter><radialGradient id="c" cx="0.215" cy="-0.074" r="0.993" gradientTransform="matrix(0.489, -0.872, 0.968, 0.543, 0.182, 0.154)" gradientUnits="objectBoundingBox"><stop offset="0" stop-color="#fd71a5"/><stop offset="0.206" stop-color="#fb7ea8"/><stop offset="0.685" stop-color="#0278fe"/><stop offset="1" stop-color="#2dfee1"/></radialGradient><filter id="d" x="79.167" y="21.716" width="31.465" height="38.68" filterUnits="userSpaceOnUse"><feOffset dy="3" input="SourceAlpha"/><feGaussianBlur stdDeviation="3" result="e"/><feFlood flood-opacity="0.102"/><feComposite operator="in" in2="e"/><feComposite in="SourceGraphic"/></filter><filter id="f" x="99.012" y="21.716" width="31.309" height="38.68" filterUnits="userSpaceOnUse"><feOffset dy="3" input="SourceAlpha"/><feGaussianBlur stdDeviation="3" result="g"/><feFlood flood-opacity="0.102"/><feComposite operator="in" in2="g"/><feComposite in="SourceGraphic"/></filter><filter id="h" x="117.482" y="21.333" width="35.612" height="39.248" filterUnits="userSpaceOnUse"><feOffset dy="3" input="SourceAlpha"/><feGaussianBlur stdDeviation="3" result="i"/><feFlood flood-opacity="0.102"/><feComposite operator="in" in2="i"/><feComposite in="SourceGraphic"/></filter><filter id="j" x="138.142" y="21.716" width="37.388" height="38.68" filterUnits="userSpaceOnUse"><feOffset dy="3" input="SourceAlpha"/><feGaussianBlur stdDeviation="3" result="k"/><feFlood flood-opacity="0.102"/><feComposite operator="in" in2="k"/><feComposite in="SourceGraphic"/></filter><filter id="l" x="161.428" y="21.716" width="34.845" height="38.68" filterUnits="userSpaceOnUse"><feOffset dy="3" input="SourceAlpha"/><feGaussianBlur stdDeviation="3" result="m"/><feFlood flood-opacity="0.102"/><feComposite operator="in" in2="m"/><feComposite in="SourceGraphic"/></filter></defs><g transform="translate(-312 -20)"><g transform="translate(321 26)"><g class="i" transform="matrix(1, 0, 0, 1, -9, -6)"><rect class="a" width="64" height="64" rx="20" transform="translate(9 6)"/></g><path class="b" d="M465.861,277.709h4.424v-2.723h-4.424a1.143,1.143,0,0,1-1.152-1.042,1.116,1.116,0,0,1,1.113-1.19h4.413a17.944,17.944,0,0,0-17.894-16.635h0a17.943,17.943,0,0,0-17.894,16.635h4.209a1.142,1.142,0,0,1,1.152,1.042,1.116,1.116,0,0,1-1.113,1.19H434.4v2.723h4.257a1.143,1.143,0,0,1,1.152,1.042,1.116,1.116,0,0,1-1.113,1.19H434.4v2.723h4.257a1.143,1.143,0,0,1,1.152,1.042,1.116,1.116,0,0,1-1.113,1.19H434.4v3.026a9.652,9.652,0,0,0,1.131,4.549,5.024,5.024,0,0,0,8.637.317h0a5.966,5.966,0,0,0,.708-4.96c-.709-2.365-1.655-5.43-2.376-7.452a9.154,9.154,0,0,1,.9-7.809l-1.052-.454a.639.639,0,0,1-.371-.77.622.622,0,0,1,.838-.382l1.438.621.089-.061-.058-1.7a.641.641,0,0,1,.537-.665.621.621,0,0,1,.7.594l.035,1.024c.015-.005.029-.013.044-.018a12.794,12.794,0,0,1,3.192-.575v8.611h-.226a1.652,1.652,0,0,0-1.652,1.652v3.838a1.652,1.652,0,0,0,1.652,1.652h2.662a1.652,1.652,0,0,0,1.652-1.652v-3.838a1.652,1.652,0,0,0-1.652-1.652H451v-8.783a11.131,11.131,0,0,0,2.3-.416,0,0,0,0,0,0,0,4.918,4.918,0,0,0,.988-.429l.03-.018c.047-.028.094-.057.139-.087l.087-.061c.032-.022.063-.043.094-.067.061-.046.119-.092.177-.142l.005,0c1.692-1.466,3.493-2.317,3.528-1.165v0a1.513,1.513,0,0,1-.021.281c-.01.062-.023.126-.039.2a4.654,4.654,0,0,1-.219.654c-.54,1.323-.035,1.5.793,1.1a8.9,8.9,0,0,0,2.743-2.417c.587-.785,1.227-.511,1.667.291.023.042.046.085.068.13,0,0,0,0,0,0,.043.09.085.185.123.285q.049.125.091.262l.027.086c.014.048.028.1.04.144s.023.089.033.134a6.132,6.132,0,0,1,.159,1.4,5.92,5.92,0,0,1-.424,2.238,4.7,4.7,0,0,1-.583,1.034,7.038,7.038,0,0,1-.622.707,9.388,9.388,0,0,1-2.5,1.76s.03.282.075.778c.1,1.134.285,3.385.364,5.913,0,.011,1.088,3.505,1.351,4.9a.482.482,0,0,1-.46.573,6.092,6.092,0,0,1-.937-.049,20.407,20.407,0,0,1-.584,4.067q-.032.118-.068.231a1.072,1.072,0,0,1-.115.253,1.1,1.1,0,0,1-1,.52c-.143-.008-.282-.016-.42-.027h-.022a17.746,17.746,0,0,1-4.1-.727h0a3.661,3.661,0,0,0,3.278,5.291h3.533a9.707,9.707,0,0,0,9.707-9.707V284.9h-4.423a1.142,1.142,0,0,1-1.152-1.042,1.116,1.116,0,0,1,1.113-1.19h4.461v-2.723h-4.461a1.115,1.115,0,0,1-1.113-1.19A1.139,1.139,0,0,1,465.861,277.709Z" transform="translate(-420.342 -244.875)"/></g><g class="h" transform="matrix(1, 0, 0, 1, 312, 20)"><path class="c" d="M-3.552-41.8h-8.181v8.451h-4.261v-20.68H-2.529v3.451h-9.2v5.34h8.181Z" transform="translate(104.16 81.75)"/></g><g class="g" transform="matrix(1, 0, 0, 1, 312, 20)"><path class="c" d="M-11.492-36.774h9.048v3.423H-15.753v-20.68h4.261Z" transform="translate(123.76 81.75)"/></g><g class="f" transform="matrix(1, 0, 0, 1, 312, 20)"><path class="c" d="M-5.433-43.681a12.484,12.484,0,0,1-1.079,5.355A8.129,8.129,0,0,1-9.6-34.775a8.545,8.545,0,0,1-4.609,1.25A8.6,8.6,0,0,1-18.8-34.761a8.209,8.209,0,0,1-3.125-3.53,12.127,12.127,0,0,1-1.122-5.277V-44.59a12.418,12.418,0,0,1,1.1-5.376,8.2,8.2,0,0,1,3.111-3.565,8.556,8.556,0,0,1,4.595-1.243,8.556,8.556,0,0,1,4.595,1.243,8.2,8.2,0,0,1,3.111,3.565,12.383,12.383,0,0,1,1.1,5.362Zm-4.318-.937a8.7,8.7,0,0,0-1.165-4.943,3.8,3.8,0,0,0-3.324-1.69,3.8,3.8,0,0,0-3.309,1.669,8.6,8.6,0,0,0-1.179,4.893v1.008a8.811,8.811,0,0,0,1.165,4.914,3.786,3.786,0,0,0,3.352,1.747,3.752,3.752,0,0,0,3.3-1.683A8.76,8.76,0,0,0-9.751-43.61Z" transform="translate(149.53 82.11)"/></g><g class="e" transform="matrix(1, 0, 0, 1, 312, 20)"><path class="c" d="M-11.886-37.612h-7.471l-1.42,4.261h-4.531l7.7-20.68h3.949l7.741,20.68h-4.531Zm-6.32-3.451h5.17l-2.6-7.741Z" transform="translate(172.45 81.75)"/></g><g class="d" transform="matrix(1, 0, 0, 1, 312, 20)"><path class="c" d="M-5.179-50.58h-6.335v17.229h-4.261V-50.58h-6.249v-3.451H-5.179Z" transform="translate(192.45 81.75)"/></g></g></svg>