<svg xmlns="http://www.w3.org/2000/svg" width="1567.959" height="1398.536" viewBox="0 0 1567.959 1398.536"><defs><style>.a{fill:#fff;opacity:0.14;}</style></defs><g transform="translate(-764.177 544.435)"><path class="a" d="M474.777,4.686c119.386-15.3,261.541,4.33,338.724,96.628,76.122,91.03,26.48,227.244,31.231,345.781,3.255,81.2,4.811,157.429-7.845,237.706-15.365,97.456,7.3,222.712-73.648,279.194-81.156,56.63-189.734-19.433-288.462-26.514-88.677-6.36-183.281,32.3-259.871-12.812C135.807,878.073,104.384,783.7,69.577,698.792,31.881,606.836-17.191,511.637,5.977,415c23.914-99.75,110.591-166.7,187.8-234.282,85.248-74.612,168.6-161.63,281-176.031" transform="translate(1149.445 582.648) rotate(-74)"/><path class="a" d="M474.777,4.686c119.386-15.3,261.541,4.33,338.724,96.628,76.122,91.03,26.48,227.244,31.231,345.781,3.255,81.2,4.811,157.429-7.845,237.706-15.365,97.456,7.3,222.712-73.648,279.194-81.156,56.63-189.734-19.433-288.462-26.514-88.677-6.36-183.281,32.3-259.871-12.812C135.807,878.073,104.384,783.7,69.577,698.792,31.881,606.836-17.191,511.637,5.977,415c23.914-99.75,110.591-166.7,187.8-234.282,85.248-74.612,168.6-161.63,281-176.031" transform="translate(764.177 278.68) rotate(-74)"/></g></svg>