<svg xmlns="http://www.w3.org/2000/svg" width="19.33" height="19.33" viewBox="0 0 19.33 19.33"><defs><style>.a{fill:#fff;}</style></defs><path class="a" d="M16.826,5.344h0a1.16,1.16,0,1,0,1.16,1.16A1.16,1.16,0,0,0,16.826,5.344Zm4.446,2.339a7.336,7.336,0,0,0-.445-2.349,4.775,4.775,0,0,0-1.121-1.711A4.543,4.543,0,0,0,18,2.512a7.056,7.056,0,0,0-2.349-.454C14.623,2,14.294,2,11.665,2s-2.958,0-3.982.058a7.056,7.056,0,0,0-2.349.454A4.62,4.62,0,0,0,3.624,3.624,4.543,4.543,0,0,0,2.512,5.334a7.055,7.055,0,0,0-.454,2.349C2,8.708,2,9.036,2,11.665s0,2.957.058,3.982A7.055,7.055,0,0,0,2.512,18a4.543,4.543,0,0,0,1.111,1.711,4.62,4.62,0,0,0,1.711,1.111,7.056,7.056,0,0,0,2.349.454c1.025.058,1.353.058,3.982.058s2.958,0,3.982-.058A7.056,7.056,0,0,0,18,20.818a4.543,4.543,0,0,0,1.711-1.111A4.687,4.687,0,0,0,20.828,18a7.336,7.336,0,0,0,.445-2.349c0-1.024.058-1.353.058-3.982S21.33,8.708,21.272,7.683Zm-1.74,7.848a5.422,5.422,0,0,1-.329,1.8,2.957,2.957,0,0,1-.725,1.111,3.083,3.083,0,0,1-1.111.725,5.422,5.422,0,0,1-1.8.329c-.967.048-1.324.058-3.866.058s-2.9,0-3.866-.058a5.538,5.538,0,0,1-1.875-.29A3.16,3.16,0,0,1,4.9,18.479a2.9,2.9,0,0,1-.715-1.111A5.354,5.354,0,0,1,3.8,15.531c0-.967-.058-1.324-.058-3.866s0-2.9.058-3.866a5.354,5.354,0,0,1,.338-1.836A2.9,2.9,0,0,1,4.9,4.9a3.035,3.035,0,0,1,1.063-.773A5.538,5.538,0,0,1,7.8,3.8c.967,0,1.324-.058,3.866-.058s2.9,0,3.866.058a5.422,5.422,0,0,1,1.8.329,2.958,2.958,0,0,1,1.15.773A2.958,2.958,0,0,1,19.2,5.963,5.422,5.422,0,0,1,19.533,7.8c.048.967.058,1.324.058,3.866S19.581,14.565,19.533,15.531ZM11.665,6.707A4.949,4.949,0,1,0,15.18,8.153a4.958,4.958,0,0,0-3.515-1.446Zm0,8.177a3.218,3.218,0,1,1,3.218-3.218,3.218,3.218,0,0,1-3.218,3.218Z" transform="translate(-2 -2)"/></svg>