<svg xmlns="http://www.w3.org/2000/svg" width="18.356" height="18.466" viewBox="0 0 18.356 18.466"><defs><style>.a{fill:#fff;}</style></defs><path class="a" d="M19.058,2H3.417A1.339,1.339,0,0,0,2.06,3.32V19.146a1.339,1.339,0,0,0,1.357,1.32H19.058a1.339,1.339,0,0,0,1.357-1.32V3.32A1.339,1.339,0,0,0,19.058,2ZM7.628,17.456H4.858V9.146h2.77ZM6.243,7.983h0a1.44,1.44,0,1,1,0-2.881,1.45,1.45,0,1,1,0,2.881Zm11.375,9.473h-2.77V13c0-1.117-.4-1.847-1.4-1.847a1.523,1.523,0,0,0-1.422,1.006,1.847,1.847,0,0,0-.092.674v4.617H9.16V9.137h2.77V10.31a2.77,2.77,0,0,1,2.5-1.385c1.847,0,3.185,1.191,3.185,3.749Z" transform="translate(-2.06 -2)"/></svg>