<svg width="197" height="78" viewBox="0 0 197 78" fill="none" xmlns="http://www.w3.org/2000/svg">
<mask id="mask0_1919_985" style="mask-type:alpha" maskUnits="userSpaceOnUse" x="0" y="0" width="197" height="78">
<rect width="197" height="77.6239" fill="#D9D9D9"/>
</mask>
<g mask="url(#mask0_1919_985)">
<path d="M112.276 24.6569C112.276 24.7524 112.276 24.7817 112.049 24.7817C111.202 24.7906 110.356 24.744 109.516 24.6422C108.663 24.5368 107.805 24.4853 106.946 24.488C106.525 24.4611 106.102 24.4932 105.69 24.5835C105.419 24.701 105.279 25.0608 105.279 25.6481C105.279 26.3824 105.463 26.7715 105.815 26.867C106.045 26.889 106.276 26.889 106.505 26.867H111.131C111.381 26.867 111.498 27.5131 111.498 28.8274C111.536 29.4978 111.497 30.1704 111.381 30.8318C111.356 30.895 111.313 30.949 111.256 30.986C111.202 31.0228 111.137 31.0385 111.072 31.0301C110.828 31.0062 110.582 31.0062 110.338 31.0301C109.545 31.0301 108.319 30.9273 106.704 30.9273H105.874C105.492 30.9273 105.294 31.1549 105.294 31.4045C105.276 32.6299 105.323 33.8553 105.433 35.0757C105.509 35.6281 105.549 36.1849 105.551 36.7424C105.551 36.948 105.316 37.0508 104.817 37.0802H103.825C102.927 37.1096 102.027 37.058 101.138 36.926C101.093 36.9281 101.048 36.9208 101.006 36.9045C100.965 36.8883 100.926 36.8635 100.895 36.8317C100.863 36.7999 100.838 36.7618 100.822 36.7199C100.806 36.678 100.798 36.6331 100.8 36.5882C100.8 35.7585 100.837 34.503 100.896 32.8363V29.1064C100.896 28.2694 100.896 26.867 100.771 25.3691C100.632 23.071 100.558 21.8154 100.558 21.6466V21.5071C100.558 21.3235 100.668 21.228 100.896 21.228H105.903C106.803 21.2376 107.703 21.1935 108.598 21.0959C109.49 20.9931 110.387 20.9465 111.285 20.9564C111.88 20.9564 111.865 21.1106 111.909 21.4189C111.937 21.9081 111.937 22.3983 111.909 22.8874C111.907 23.2144 111.959 23.5395 112.064 23.8493C112.158 24.1117 112.229 24.382 112.276 24.6569Z" fill="white"/>
<path d="M127.262 36.927H117.453C117.412 36.9345 117.369 36.9345 117.328 36.927C117.286 36.9112 117.248 36.8861 117.218 36.8535C117.191 36.8202 117.168 36.7831 117.152 36.7434C117.145 36.6996 117.145 36.655 117.152 36.6112V29.2689C117.152 28.4465 117.152 27.0662 117.078 25.3628C117.005 23.6593 116.998 22.2716 116.998 21.4713C116.998 21.3024 117.108 21.2217 117.335 21.2217H121.52C121.631 21.2217 121.689 21.2217 121.675 21.442V21.5814C121.587 22.9838 121.476 25.0984 121.374 27.9252V33.0649C121.374 33.0858 121.379 33.1063 121.388 33.1252C121.397 33.1442 121.409 33.1611 121.425 33.175C121.456 33.2084 121.497 33.2293 121.542 33.2338H121.829C122.504 33.2338 123.51 33.2338 124.883 33.1236C126.256 33.0135 127.225 33.0135 127.945 33.0135C128.143 33.0135 128.246 33.1089 128.246 33.2778C128.265 34.3861 128.169 35.4933 127.96 36.5819C127.967 36.6586 127.947 36.7354 127.904 36.7995C127.862 36.8636 127.798 36.9112 127.725 36.9343L127.262 36.927Z" fill="white"/>
<path d="M148.32 28.8864C148.36 29.9624 148.185 31.0355 147.807 32.0437C147.429 33.0519 146.855 33.9752 146.118 34.7602C144.987 35.9152 143.534 36.7015 141.948 37.016C140.363 37.3304 138.719 37.1584 137.234 36.5224C136.241 36.1164 135.343 35.5087 134.597 34.7378C133.852 33.9668 133.274 33.0493 132.902 32.0436C132.185 29.9997 132.185 27.773 132.902 25.7291C133.288 24.7257 133.864 23.8059 134.598 23.0198C135.347 22.2515 136.24 21.6379 137.226 21.2136C138.211 20.7968 139.27 20.582 140.339 20.582C141.409 20.582 142.468 20.7968 143.452 21.2136C144.436 21.638 145.327 22.2517 146.074 23.0198C147.564 24.6071 148.371 26.7168 148.32 28.8937V28.8864ZM144.077 28.8864C144.106 27.8414 143.745 26.823 143.063 26.0302C142.731 25.6401 142.317 25.327 141.852 25.1124C141.151 24.7886 140.363 24.703 139.609 24.8687C138.854 25.0344 138.175 25.4423 137.674 26.0302C136.976 26.8112 136.594 27.8242 136.602 28.8717C136.571 29.9175 136.924 30.9386 137.593 31.7425C137.938 32.1316 138.364 32.4399 138.841 32.6456C139.305 32.8457 139.806 32.9434 140.31 32.932C140.818 32.9315 141.319 32.8187 141.778 32.6016C142.248 32.3876 142.661 32.0656 142.983 31.6618C143.664 30.8932 144.036 29.8988 144.025 28.8717L144.077 28.8864Z" fill="white"/>
<path d="M168.078 36.4638C168.078 36.6033 167.989 36.6987 167.791 36.7428C167.102 36.8332 166.407 36.8651 165.713 36.8382C165.024 36.8579 164.334 36.826 163.65 36.7428C163.526 36.7217 163.412 36.6597 163.327 36.5666C163.24 36.4768 163.186 36.3605 163.173 36.2362C163.09 35.6253 162.888 35.0366 162.578 34.5034C161.561 34.4446 160.541 34.4446 159.524 34.5034C158.844 34.4664 158.162 34.5033 157.49 34.6135C157.276 34.9856 157.131 35.3937 157.064 35.8177C156.925 36.4344 156.756 36.7722 156.557 36.8236C155.709 36.9117 154.855 36.9411 154.002 36.9117C152.857 36.9117 152.292 36.8089 152.292 36.5886C152.292 36.3683 153.136 33.9968 154.817 29.4151C156.648 24.4517 157.666 21.7277 157.872 21.2431C157.96 20.9568 158.07 20.8172 158.195 20.8172C158.505 20.7953 158.817 20.7953 159.127 20.8172H161.829C161.983 20.8172 162.101 20.9347 162.226 21.1844C162.593 21.9676 163.657 24.6597 165.42 29.2609C167.182 33.8621 168.068 36.2631 168.078 36.4638ZM160.133 26.2432C159.979 26.5663 159.722 27.2712 159.355 28.3872C159.083 29.0477 158.879 29.7341 158.745 30.4357C158.745 30.5605 158.973 30.6413 159.414 30.656H160.559C161.051 30.656 161.293 30.656 161.374 30.4724C161.381 30.4213 161.381 30.3694 161.374 30.3182C161.266 29.6353 161.101 28.9624 160.882 28.3064C160.695 27.5994 160.45 26.9092 160.148 26.2432H160.133Z" fill="white"/>
<path d="M183.439 24.4447C183.439 24.5842 183.439 24.6576 183.189 24.6576C182.94 24.6576 181.787 24.6576 179.826 24.4888V28.4463C179.826 29.1805 179.826 30.649 179.936 32.4332C180.047 34.2174 180.047 35.517 180.047 36.4127C180.047 36.5523 180.047 36.6477 179.951 36.6771C179.844 36.6918 179.735 36.6918 179.628 36.6771C178.975 36.7504 178.318 36.7799 177.66 36.7652C176.986 36.78 176.312 36.7506 175.641 36.6771C175.6 36.688 175.557 36.688 175.516 36.6771C175.476 36.6578 175.439 36.6331 175.406 36.6036C175.376 36.5726 175.353 36.5349 175.34 36.4935C175.334 36.4522 175.334 36.41 175.34 36.3687C175.34 35.4729 175.34 34.166 175.465 32.3818C175.59 30.5976 175.575 29.298 175.575 28.4169C175.575 27.8295 175.575 26.5299 175.48 24.5108C174.264 24.6959 173.038 24.8038 171.809 24.8339C171.698 24.8339 171.64 24.8339 171.64 24.709C171.669 24.4192 171.721 24.132 171.794 23.85C171.911 23.3213 171.977 23.013 171.992 22.9028V21.8382C171.992 21.4858 172.146 21.0085 172.264 21.0085H172.418C174.2 21.2066 175.993 21.2875 177.785 21.2508C179.024 21.2578 180.263 21.1867 181.493 21.0379L183.02 20.9277H183.285C183.292 21.0059 183.292 21.0845 183.285 21.1627V22.8441C183.263 23.1153 183.263 23.3879 183.285 23.6591C183.35 23.918 183.401 24.1803 183.439 24.4447Z" fill="white"/>
<path d="M106.122 58.1364C105.36 58.1364 104.925 58.1251 104.818 58.1025C104.71 58.08 104.62 57.9981 104.547 57.857C103.903 56.5868 103.257 55.3137 102.607 54.0379C101.586 51.9886 101.075 50.8285 101.075 50.5575C101.075 50.1115 101.089 49.4425 101.117 48.5505C101.151 47.6529 101.168 46.9811 101.168 46.5351C101.168 46.3263 101.224 46.2218 101.337 46.2218C101.676 46.2218 102.19 46.2359 102.878 46.2642C103.567 46.2924 104.084 46.3065 104.428 46.3065C104.569 46.3065 104.64 46.3658 104.64 46.4843C104.64 46.9416 104.606 47.6304 104.538 48.5505C104.476 49.4651 104.445 50.151 104.445 50.6083C104.445 50.9583 105.018 52.2088 106.164 54.3596C106.474 53.8008 106.827 53.1148 107.222 52.3019C107.753 51.2067 108.018 50.5349 108.018 50.2865C108.018 49.8744 108.013 49.2562 108.002 48.432C107.99 47.6021 107.985 46.9811 107.985 46.569C107.985 46.4166 108.01 46.3319 108.061 46.315C108.061 46.315 108.151 46.315 108.332 46.315C108.642 46.315 109.111 46.3009 109.738 46.2726C110.37 46.2388 110.841 46.2218 111.152 46.2218C111.321 46.2218 111.406 46.2896 111.406 46.4251C111.406 46.8598 111.397 47.5174 111.38 48.3981C111.369 49.2732 111.363 49.9308 111.363 50.3712C111.363 50.7212 110.807 52.0083 109.695 54.2326C109.255 55.0343 108.62 56.2424 107.79 57.857C107.733 57.9812 107.694 58.0517 107.671 58.0687C107.654 58.08 107.584 58.0912 107.46 58.1025C107.172 58.1251 106.726 58.1364 106.122 58.1364ZM120.754 53.9362C120.754 55.2234 120.359 56.2678 119.569 57.0694C118.784 57.8711 117.751 58.2719 116.47 58.2719C115.228 58.2719 114.206 57.8767 113.404 57.0864C112.603 56.296 112.202 55.2798 112.202 54.0379C112.202 52.7281 112.586 51.6668 113.353 50.8539C114.121 50.0353 115.16 49.626 116.47 49.626C117.745 49.626 118.779 50.0268 119.569 50.8285C120.359 51.6245 120.754 52.6604 120.754 53.9362ZM117.977 53.9362C117.977 53.4903 117.839 53.0979 117.562 52.7592C117.285 52.4148 116.927 52.2426 116.487 52.2426C116.041 52.2426 115.674 52.4176 115.386 52.7677C115.115 53.0951 114.979 53.4846 114.979 53.9362C114.979 54.3935 115.115 54.7859 115.386 55.1133C115.674 55.4633 116.041 55.6383 116.487 55.6383C116.927 55.6383 117.291 55.4633 117.579 55.1133C117.844 54.7859 117.977 54.3935 117.977 53.9362ZM125.141 47.9239C125.141 48.9062 124.588 49.3974 123.481 49.3974C123.007 49.3974 122.615 49.2732 122.304 49.0248C121.965 48.7538 121.796 48.3868 121.796 47.9239C121.796 47.4836 121.971 47.1223 122.321 46.84C122.643 46.5803 123.03 46.4505 123.481 46.4505C123.922 46.4505 124.303 46.5831 124.624 46.8485C124.969 47.1307 125.141 47.4892 125.141 47.9239ZM124.921 54.2157C124.921 54.6278 124.929 55.2432 124.946 56.0617C124.963 56.8747 124.972 57.4844 124.972 57.8908C124.972 58.0094 124.901 58.08 124.76 58.1025C124.568 58.1364 124.136 58.1533 123.464 58.1533C122.787 58.1533 122.352 58.1364 122.16 58.1025C122.036 58.08 121.96 58.0433 121.932 57.9925C121.92 57.9699 121.915 57.8852 121.915 57.7384C121.915 57.3489 121.923 56.7646 121.94 55.9855C121.957 55.2008 121.965 54.6109 121.965 54.2157C121.965 52.6124 121.903 51.3365 121.779 50.3881C121.768 50.2978 121.762 50.2385 121.762 50.2103C121.762 50.0974 121.838 50.0409 121.991 50.0409C122.149 50.0409 122.389 50.0579 122.711 50.0917C123.038 50.1256 123.284 50.1425 123.447 50.1425C123.611 50.1425 123.857 50.1284 124.184 50.1002C124.511 50.072 124.757 50.0579 124.921 50.0579C125.056 50.0579 125.124 50.1143 125.124 50.2272C125.124 50.2498 125.118 50.3034 125.107 50.3881C124.983 51.489 124.921 52.7648 124.921 54.2157ZM132.169 52.5305C132.164 52.5305 131.992 52.4854 131.653 52.3951C131.32 52.3047 131.049 52.2596 130.84 52.2596C130.338 52.2596 129.937 52.412 129.637 52.7168C129.338 53.016 129.189 53.4169 129.189 53.9193C129.189 54.4387 129.352 54.848 129.68 55.1472C130.007 55.4407 130.433 55.5875 130.958 55.5875C131.207 55.5875 131.486 55.5254 131.797 55.4012C132.107 55.2714 132.254 55.2065 132.237 55.2065C132.333 55.2065 132.457 55.5649 132.61 56.2819C132.74 56.9368 132.805 57.3715 132.805 57.586C132.805 57.8005 132.455 57.984 131.754 58.1364C131.213 58.255 130.775 58.3142 130.442 58.3142C129.2 58.3142 128.175 57.8965 127.368 57.061C126.561 56.2254 126.157 55.1839 126.157 53.9362C126.157 52.6999 126.561 51.6612 127.368 50.82C128.181 49.9732 129.206 49.5498 130.442 49.5498C131.283 49.5498 132.023 49.7304 132.661 50.0917C132.807 50.1708 132.881 50.247 132.881 50.3204C132.881 50.3938 132.796 50.7268 132.627 51.3196C132.469 51.8898 132.364 52.2342 132.313 52.3527C132.268 52.4713 132.22 52.5305 132.169 52.5305ZM141.535 53.5044C141.535 54.0746 141.352 54.3992 140.985 54.4782C140.923 54.4895 140.338 54.5516 139.232 54.6645C138.566 54.7379 137.572 54.8254 136.251 54.927C136.33 55.294 136.57 55.5734 136.971 55.7653C137.298 55.9234 137.671 56.0025 138.089 56.0025C138.591 56.0025 139.096 55.867 139.604 55.596C139.819 55.4605 140.033 55.325 140.248 55.1895C140.367 55.246 140.564 55.5339 140.841 56.0533C141.123 56.5726 141.264 56.9029 141.264 57.044C141.264 57.0835 141.222 57.1485 141.137 57.2388C140.448 57.9783 139.379 58.3481 137.928 58.3481C136.584 58.3481 135.5 57.9558 134.676 57.1711C133.829 56.3751 133.406 55.3109 133.406 53.9786C133.406 52.6801 133.784 51.616 134.54 50.7861C135.32 49.928 136.353 49.499 137.64 49.499C138.724 49.499 139.644 49.8942 140.4 50.6845C141.157 51.4749 141.535 52.4148 141.535 53.5044ZM138.571 52.9878C138.571 52.6378 138.447 52.3301 138.199 52.0648C137.95 51.7995 137.654 51.6668 137.31 51.6668C136.954 51.6668 136.66 51.8164 136.429 52.1156C136.214 52.3922 136.107 52.7168 136.107 53.0894C136.107 53.2419 136.186 53.3181 136.344 53.3181C136.762 53.3181 137.411 53.2532 138.292 53.1233C138.478 53.0951 138.571 53.0499 138.571 52.9878ZM156.752 56.1888C156.752 56.2791 156.693 56.3976 156.574 56.5444C155.536 57.7808 154.155 58.3989 152.434 58.3989C150.672 58.3989 149.244 57.7977 148.149 56.5952C147.082 55.4323 146.548 53.9645 146.548 52.1918C146.548 50.4756 147.07 49.0191 148.115 47.8223C149.204 46.569 150.59 45.9424 152.273 45.9424C154.102 45.9424 155.536 46.5041 156.574 47.6275C156.687 47.7517 156.744 47.8618 156.744 47.9578C156.744 48.065 156.546 48.463 156.151 49.1518C155.761 49.8405 155.516 50.2272 155.414 50.3119C155.369 50.3571 155.313 50.3797 155.245 50.3797C155.217 50.3797 155.076 50.2667 154.822 50.0409C154.517 49.77 154.217 49.5582 153.924 49.4058C153.478 49.18 153.015 49.0671 152.535 49.0671C151.705 49.0671 151.042 49.3776 150.545 49.9986C150.088 50.5744 149.859 51.2857 149.859 52.1325C149.859 52.9906 150.088 53.7104 150.545 54.2919C151.042 54.9242 151.705 55.2403 152.535 55.2403C153.026 55.2403 153.492 55.1331 153.932 54.9185C154.22 54.7774 154.514 54.5798 154.813 54.3258C155.061 54.1113 155.2 54.004 155.228 54.004C155.284 54.004 155.341 54.035 155.397 54.0971C155.488 54.1988 155.733 54.5516 156.134 55.1556C156.546 55.7823 156.752 56.1267 156.752 56.1888ZM166.059 51.9632L166.042 57.8062C166.042 58.0037 165.963 58.1138 165.805 58.1364C165.624 58.159 165.212 58.1703 164.568 58.1703C163.947 58.1703 163.515 58.1477 163.273 58.1025C163.086 58.0687 162.993 57.9473 162.993 57.7384C162.993 57.2529 163.002 56.5218 163.019 55.5452C163.036 54.5685 163.044 53.8375 163.044 53.3519C163.044 52.6914 162.708 52.3612 162.036 52.3612C161.811 52.3612 161.545 52.4515 161.24 52.6322C160.907 52.8298 160.741 53.0358 160.741 53.2503V55.3419C160.741 55.6129 160.746 56.0222 160.758 56.5698C160.769 57.1118 160.775 57.5182 160.775 57.7892C160.775 57.9981 160.687 58.1138 160.512 58.1364C160.337 58.159 159.846 58.1703 159.039 58.1703C158.576 58.1703 158.243 58.1477 158.039 58.1025C157.836 58.0574 157.735 57.9586 157.735 57.8062C157.735 57.3602 157.737 56.6912 157.743 55.7992C157.749 54.9016 157.751 54.2298 157.751 53.7838C157.751 51.9378 157.732 50.4107 157.692 49.2026C157.675 48.7792 157.661 48.3558 157.65 47.9324C157.622 47.4412 157.571 47.0206 157.497 46.6706C157.481 46.5972 157.472 46.5436 157.472 46.5097C157.472 46.4251 157.514 46.3686 157.599 46.3404C157.774 46.2896 158.031 46.2585 158.37 46.2472C158.821 46.2303 159.084 46.2162 159.157 46.2049C160.179 46.0863 160.69 46.0271 160.69 46.0271C160.78 46.0271 160.825 46.0863 160.825 46.2049C160.825 46.3855 160.814 46.6311 160.792 46.9416C160.769 47.3029 160.758 47.5485 160.758 47.6783C160.724 48.9542 160.707 49.9619 160.707 50.7014C160.707 50.8143 160.735 50.8708 160.792 50.8708C160.803 50.8708 160.947 50.772 161.223 50.5744C161.551 50.343 161.864 50.1595 162.163 50.024C162.609 49.8264 163.041 49.7276 163.459 49.7276C164.182 49.7276 164.786 49.9167 165.271 50.295C165.796 50.7014 166.059 51.2575 166.059 51.9632ZM175.958 53.8685C175.958 54.3032 175.983 54.9496 176.034 55.8077C176.085 56.6658 176.11 57.3094 176.11 57.7384C176.11 57.9642 176.011 58.0856 175.814 58.1025C175.114 58.1533 174.312 58.1788 173.409 58.1788C173.302 58.1788 173.228 58.0179 173.189 57.6961C173.155 57.3686 173.113 57.2021 173.062 57.1965C173.017 57.219 172.957 57.267 172.884 57.3404C172.252 57.9783 171.574 58.2973 170.852 58.2973C169.751 58.2973 168.839 57.8626 168.116 56.9932C167.433 56.1803 167.092 55.2093 167.092 54.0802C167.092 52.7761 167.445 51.7261 168.15 50.9301C168.884 50.1059 169.889 49.6937 171.165 49.6937C172.051 49.6937 172.751 50.0042 173.265 50.6252C173.288 50.6535 173.307 50.6676 173.324 50.6676C173.375 50.6676 173.432 50.5321 173.494 50.2611C173.561 49.9845 173.64 49.8462 173.731 49.8462C173.94 49.8462 174.338 49.9054 174.925 50.024C175.484 50.1369 175.884 50.2329 176.127 50.3119C176.212 50.3458 176.254 50.3909 176.254 50.4474C176.254 50.47 176.246 50.5293 176.229 50.6252C176.048 51.647 175.958 52.7281 175.958 53.8685ZM173.231 53.9193C173.231 53.4395 173.079 53.0443 172.774 52.7338C172.475 52.4176 172.082 52.2596 171.597 52.2596C171.111 52.2596 170.719 52.4148 170.42 52.7253C170.121 53.0358 169.971 53.4338 169.971 53.9193C169.971 54.3766 170.129 54.7689 170.445 55.0964C170.761 55.4238 171.145 55.5875 171.597 55.5875C172.077 55.5875 172.469 55.4323 172.774 55.1218C173.079 54.8056 173.231 54.4048 173.231 53.9193ZM183.308 55.6214C183.308 55.7908 183.286 56.0476 183.24 56.392C183.201 56.7364 183.181 56.9904 183.181 57.1541C183.181 57.3122 183.164 57.4138 183.13 57.459C183.096 57.5041 183.003 57.5691 182.851 57.6537C182.123 58.0546 181.315 58.255 180.429 58.255C178.797 58.255 177.982 57.6311 177.982 56.3835C177.982 56.0109 177.996 55.452 178.024 54.7068C178.052 53.956 178.066 53.3943 178.066 53.0217C178.066 52.7733 177.922 52.6491 177.635 52.6491C177.612 52.6491 177.575 52.6491 177.524 52.6491C177.474 52.6547 177.437 52.6576 177.414 52.6576C177.2 52.6576 177.093 52.5814 177.093 52.4289C177.093 52.3386 177.098 52.2003 177.11 52.014C177.126 51.8277 177.135 51.6894 177.135 51.5991C177.135 51.4805 177.126 51.2999 177.11 51.0571C177.098 50.8143 177.093 50.6337 177.093 50.5151C177.093 50.4022 177.273 50.3401 177.635 50.3288C177.838 50.3232 177.948 50.2667 177.965 50.1595C177.999 49.945 178.01 49.6062 177.999 49.1433C177.976 48.4151 177.965 48.0679 177.965 48.1017C177.965 47.4469 178.027 47.1194 178.151 47.1194C178.304 47.1194 178.521 47.1533 178.803 47.2211C179.125 47.2945 179.348 47.3368 179.472 47.3481C179.76 47.3876 180.195 47.4412 180.776 47.509C180.917 47.5203 180.988 47.5683 180.988 47.6529C180.988 47.8787 180.968 48.2203 180.929 48.6776C180.895 49.1348 180.878 49.4792 180.878 49.7107C180.878 49.9873 180.96 50.1256 181.123 50.1256C181.321 50.1256 181.62 50.1171 182.021 50.1002C182.422 50.0833 182.724 50.0748 182.927 50.0748C183.051 50.0748 183.113 50.1171 183.113 50.2018C183.113 50.3317 183.099 50.5264 183.071 50.7861C183.043 51.0458 183.029 51.2406 183.029 51.3704C183.029 51.5059 183.032 51.7035 183.037 51.9632C183.043 52.2229 183.046 52.4205 183.046 52.5559C183.046 52.6745 182.964 52.7338 182.8 52.7338C182.687 52.7338 182.498 52.731 182.233 52.7253C181.967 52.714 181.778 52.7084 181.665 52.7084H181.03C180.946 52.7084 180.903 52.8326 180.903 53.081C180.903 53.2165 180.903 53.4169 180.903 53.6822C180.909 53.9532 180.912 54.1536 180.912 54.2834C180.912 54.7576 180.965 55.0851 181.073 55.2657C181.225 55.5085 181.524 55.6299 181.97 55.6299C182.111 55.6299 182.312 55.5988 182.571 55.5367C182.837 55.469 183.023 55.4351 183.13 55.4351C183.249 55.4351 183.308 55.4972 183.308 55.6214Z" fill="white"/>
<g filter="url(#filter0_dd_1919_985)">
<rect x="13.5254" y="5.29297" width="67.0388" height="67.0388" rx="11.7612" fill="white"/>
</g>
<path d="M60.6591 39.664H65.046V36.9609H60.6591C60.4465 36.9649 60.2373 36.9065 60.057 36.7926C59.8767 36.6787 59.733 36.5143 59.6435 36.3194C59.554 36.1245 59.5226 35.9076 59.553 35.695C59.5833 35.4823 59.6743 35.2832 59.8147 35.1219C59.9095 35.0107 60.0252 34.9197 60.1551 34.8541C60.285 34.7885 60.4265 34.7496 60.5714 34.7397H65.035C64.689 30.2418 62.6619 26.0454 59.365 23.0021C56.055 19.9332 51.7256 18.2305 47.2326 18.2305C42.7397 18.2305 38.4103 19.9332 35.1003 23.0021C31.8099 26.0485 29.7889 30.2443 29.4467 34.7397H33.6307C33.9166 34.7352 34.1939 34.8378 34.4094 35.0277C34.6229 35.2213 34.7528 35.4918 34.7713 35.781C34.7802 35.9266 34.7605 36.0725 34.7135 36.2103C34.6665 36.3482 34.593 36.4753 34.4972 36.5844C34.4014 36.6935 34.2853 36.7824 34.1554 36.8461C34.0255 36.9097 33.8845 36.9469 33.7404 36.9553H29.4029V39.6585H33.6307C33.917 39.6513 34.1953 39.7542 34.4094 39.9465C34.6204 40.1374 34.7501 40.4034 34.7713 40.6888C34.7892 40.98 34.6926 41.2666 34.5026 41.4864C34.3072 41.7088 34.0339 41.8459 33.7404 41.8686H29.4029V44.5717H33.6307C33.9176 44.5611 34.1971 44.6645 34.4094 44.8598C34.6216 45.052 34.7514 45.3202 34.7713 45.6076C34.7802 45.7531 34.7605 45.899 34.7135 46.0368C34.6665 46.1747 34.593 46.3018 34.4972 46.4109C34.4014 46.52 34.2853 46.609 34.1554 46.6726C34.0255 46.7363 33.8845 46.7734 33.7404 46.7819H29.4029V49.7952C29.3988 51.3678 29.7753 52.9176 30.4996 54.3096C30.9254 55.0689 31.5376 55.7046 32.277 56.1557C33.0165 56.6068 33.8585 56.8581 34.7219 56.8854C35.5831 56.9169 36.438 56.7262 37.206 56.3314C37.9708 55.9358 38.6222 55.3483 39.0978 54.6254C39.5699 53.909 39.8796 53.0962 40.0048 52.2449C40.1299 51.3937 40.0674 50.525 39.8216 49.701C39.1142 47.3524 38.1766 44.3058 37.4582 42.2951C37.0224 41.018 36.8755 39.6585 37.0283 38.3165C37.1811 36.9745 37.6297 35.6841 38.3411 34.5403L37.2992 34.0971C37.1545 34.0368 37.0373 33.9242 36.9702 33.7814C36.9002 33.6405 36.8865 33.4779 36.9318 33.3272C36.9544 33.2493 36.9938 33.1775 37.0469 33.1167C37.0986 33.0548 37.162 33.004 37.2334 32.9671C37.3067 32.9291 37.3869 32.9064 37.4692 32.9007C37.5488 32.8962 37.6285 32.9056 37.705 32.9283H37.7598L39.191 33.5487L39.2787 33.4878L39.2239 31.826C39.2141 31.6645 39.2673 31.5055 39.372 31.3829C39.4757 31.2612 39.6201 31.1823 39.7777 31.1613C39.8592 31.1446 39.9431 31.1446 40.0245 31.1613C40.104 31.1836 40.1785 31.2212 40.2439 31.2721C40.3082 31.3242 40.3621 31.3881 40.4029 31.4605C40.4413 31.5342 40.4637 31.6154 40.4687 31.6986V31.7596L40.5071 32.7788H40.5509C41.5812 32.4648 42.6456 32.2788 43.7204 32.2249V40.7386H43.5011C43.2846 40.7388 43.0703 40.782 42.8705 40.866C42.6649 40.9437 42.478 41.0645 42.3221 41.2205C42.1661 41.3778 42.0446 41.5665 41.9657 41.7744C41.8848 41.9729 41.8437 42.1857 41.8451 42.4004V46.2113C41.8396 46.6514 42.0072 47.0758 42.3112 47.3912C42.4689 47.5476 42.6551 47.6717 42.8595 47.7568C43.0614 47.8403 43.2774 47.8836 43.4956 47.8842H46.1442C46.3603 47.8811 46.5738 47.835 46.7723 47.7485C46.9709 47.662 47.1506 47.5368 47.3012 47.3801C47.6084 47.0701 47.7819 46.65 47.7837 46.2113V42.3782C47.779 41.9434 47.6058 41.5278 47.3012 41.2205C46.9934 40.9122 46.5776 40.739 46.1442 40.7386H45.9084V32.0144C46.6826 31.9584 47.449 31.821 48.195 31.6045C48.5363 31.4981 48.8654 31.3551 49.1766 31.178L49.3137 31.0893L49.4069 31.0284L49.4946 30.9675L49.6701 30.8235C51.3481 29.3666 53.1412 28.5192 53.1741 29.6602C53.1925 29.82 53.1795 29.9819 53.1357 30.1366C53.0791 30.358 53.0058 30.5746 52.9163 30.7847C52.368 32.0975 52.8834 32.2747 53.7115 31.8925C54.7808 31.2947 55.7147 30.4777 56.4532 29.494C57.04 28.713 57.6761 28.99 58.0983 29.7876L58.1641 29.915C58.208 30.0037 58.2464 30.0978 58.2902 30.1975C58.3341 30.2972 58.3506 30.3637 58.378 30.4523C58.4054 30.541 58.378 30.5077 58.4054 30.541L58.4438 30.685C58.4384 30.7319 58.4501 30.7791 58.4767 30.8179C58.736 32.0201 58.6289 33.2733 58.1696 34.4129C58.0282 34.7737 57.8441 35.116 57.6212 35.4321C57.4293 35.6793 57.2224 35.9143 57.0016 36.1355C56.26 36.861 55.4038 37.4563 54.4682 37.897C54.4682 37.897 54.4956 38.174 54.5395 38.6725C54.6492 39.7803 54.8246 41.996 54.9014 44.544C54.9014 44.544 55.9981 48.0226 56.2449 49.4019C56.2581 49.4636 56.2586 49.5275 56.2463 49.5894C56.2341 49.6514 56.2093 49.7101 56.1736 49.7619C56.1383 49.8144 56.0929 49.859 56.0402 49.8933C55.9874 49.9276 55.9283 49.9507 55.8665 49.9614H55.7897C55.4781 49.9725 55.1662 49.9559 54.8575 49.9115C54.8096 51.2746 54.6259 52.6293 54.3092 53.9551L54.2379 54.1822C54.2108 54.2702 54.172 54.354 54.1227 54.4315C54.0198 54.6002 53.874 54.7379 53.7005 54.8303C53.5313 54.9183 53.3423 54.9603 53.1521 54.9522H52.7354C51.3537 54.8739 49.986 54.6304 48.6611 54.2265C48.3879 54.7811 48.2595 55.397 48.2882 56.0157C48.3171 56.6357 48.5062 57.2372 48.8366 57.7605C49.1633 58.2885 49.6182 58.7232 50.1581 59.0235C50.6989 59.3246 51.3063 59.4828 51.9238 59.4832H55.4333C57.9845 59.4799 60.4315 58.4609 62.2439 56.6472C63.1368 55.7494 63.8443 54.6813 64.3253 53.5051C64.8063 52.3289 65.0513 51.0678 65.046 49.7952V46.7929H60.6591C60.5151 46.8006 60.371 46.7795 60.235 46.7309C60.0991 46.6823 59.974 46.6071 59.8668 46.5096C59.6503 46.3127 59.5201 46.0371 59.5048 45.7433C59.4896 45.4495 59.5905 45.1615 59.7853 44.9429C59.9802 44.7242 60.2531 44.5927 60.544 44.5773H65.046V41.8797H60.6591C60.364 41.8781 60.0809 41.7609 59.8695 41.5529C59.7652 41.4496 59.6824 41.3264 59.6259 41.1903C59.5694 41.0543 59.5404 40.9083 59.5405 40.7608V40.6832C59.5658 40.4038 59.6951 40.1444 59.9024 39.9576C60.1097 39.7681 60.3795 39.6634 60.6591 39.664Z" fill="url(#paint0_linear_1919_985)"/>
</g>
<defs>
<filter id="filter0_dd_1919_985" x="8.82091" y="0.588491" width="74.0953" height="76.448" filterUnits="userSpaceOnUse" color-interpolation-filters="sRGB">
<feFlood flood-opacity="0" result="BackgroundImageFix"/>
<feColorMatrix in="SourceAlpha" type="matrix" values="0 0 0 0 0 0 0 0 0 0 0 0 0 0 0 0 0 0 127 0" result="hardAlpha"/>
<feOffset dy="2.35224"/>
<feGaussianBlur stdDeviation="1.17612"/>
<feComposite in2="hardAlpha" operator="out"/>
<feColorMatrix type="matrix" values="0 0 0 0 0 0 0 0 0 0 0 0 0 0 0 0 0 0 0.1 0"/>
<feBlend mode="normal" in2="BackgroundImageFix" result="effect1_dropShadow_1919_985"/>
<feColorMatrix in="SourceAlpha" type="matrix" values="0 0 0 0 0 0 0 0 0 0 0 0 0 0 0 0 0 0 127 0" result="hardAlpha"/>
<feOffset dx="-2.35224" dy="-2.35224"/>
<feGaussianBlur stdDeviation="1.17612"/>
<feComposite in2="hardAlpha" operator="out"/>
<feColorMatrix type="matrix" values="0 0 0 0 0 0 0 0 0 0 0 0 0 0 0 0 0 0 0.1 0"/>
<feBlend mode="normal" in2="effect1_dropShadow_1919_985" result="effect2_dropShadow_1919_985"/>
<feBlend mode="normal" in="SourceGraphic" in2="effect2_dropShadow_1919_985" result="shape"/>
</filter>
<linearGradient id="paint0_linear_1919_985" x1="47.2244" y1="18.2305" x2="47.2244" y2="59.4832" gradientUnits="userSpaceOnUse">
<stop stop-color="#F85454"/>
<stop offset="1" stop-color="#F66466"/>
</linearGradient>
</defs>
</svg>
