<svg width="82" height="82" viewBox="0 0 82 82" fill="none" xmlns="http://www.w3.org/2000/svg">
<rect width="82" height="82" rx="13" fill="url(#paint0_linear_1917_918)"/>
<path d="M56.8532 41.9H61.7448V38.8858H56.8532C56.6161 38.8904 56.3828 38.8252 56.1817 38.6982C55.9807 38.5712 55.8205 38.3879 55.7207 38.1706C55.6209 37.9532 55.5858 37.7113 55.6197 37.4742C55.6536 37.2372 55.755 37.0151 55.9115 36.8352C56.0172 36.7113 56.1463 36.6098 56.2911 36.5366C56.436 36.4634 56.5938 36.4201 56.7553 36.409H61.7326C61.3468 31.3936 59.0864 26.7143 55.4101 23.3208C51.7192 19.8987 46.8916 18 41.8816 18C36.8717 18 32.044 19.8987 28.3531 23.3208C24.6841 26.7177 22.4305 31.3964 22.049 36.409H26.7144C27.0331 36.404 27.3425 36.5185 27.5827 36.7302C27.8208 36.9461 27.9657 37.2477 27.9862 37.5702C27.9961 37.7325 27.9743 37.8952 27.9218 38.0489C27.8694 38.2026 27.7874 38.3444 27.6806 38.4661C27.5738 38.5877 27.4443 38.6869 27.2995 38.7578C27.1546 38.8288 26.9974 38.8702 26.8367 38.8797H22V41.8939H26.7144C27.0336 41.8859 27.344 42.0007 27.5827 42.215C27.8179 42.4279 27.9626 42.7245 27.9862 43.0427C28.0062 43.3675 27.8985 43.6871 27.6866 43.9321C27.4687 44.1802 27.164 44.333 26.8367 44.3583H22V47.3725H26.7144C27.0343 47.3607 27.346 47.476 27.5827 47.6937C27.8194 47.9081 27.9641 48.2072 27.9862 48.5276C27.9961 48.6898 27.9743 48.8525 27.9218 49.0062C27.8694 49.16 27.7874 49.3017 27.6806 49.4234C27.5738 49.545 27.4443 49.6442 27.2995 49.7152C27.1546 49.7862 26.9974 49.8276 26.8367 49.837H22V53.1971C21.9955 54.9507 22.4153 56.6788 23.223 58.231C23.6978 59.0776 24.3804 59.7865 25.205 60.2895C26.0295 60.7925 26.9684 61.0727 27.9312 61.1032C28.8914 61.1383 29.8447 60.9257 30.7011 60.4855C31.5539 60.0443 32.2803 59.3892 32.8106 58.5831C33.3371 57.7843 33.6825 56.878 33.822 55.9288C33.9615 54.9795 33.8918 54.0109 33.6177 53.0921C32.829 50.4732 31.7834 47.076 30.9824 44.8339C30.4964 43.4099 30.3326 41.8939 30.503 40.3974C30.6734 38.901 31.1735 37.4621 31.9668 36.1867L30.805 35.6925C30.6437 35.6252 30.513 35.4997 30.4382 35.3405C30.3602 35.1834 30.3449 35.0021 30.3954 34.834C30.4206 34.7472 30.4645 34.6671 30.5238 34.5993C30.5814 34.5303 30.6521 34.4736 30.7317 34.4325C30.8134 34.3901 30.9029 34.3648 30.9946 34.3584C31.0833 34.3534 31.1723 34.3638 31.2575 34.3893H31.3187L32.9146 35.081L33.0124 35.0131L32.9513 33.1601C32.9404 32.98 32.9996 32.8026 33.1164 32.666C33.232 32.5303 33.3931 32.4423 33.5688 32.4189C33.6596 32.4003 33.7532 32.4003 33.844 32.4189C33.9327 32.4437 34.0157 32.4856 34.0886 32.5425C34.1603 32.6005 34.2204 32.6718 34.2659 32.7525C34.3087 32.8347 34.3338 32.9253 34.3393 33.0181V33.086L34.3821 34.2225H34.431C35.5799 33.8724 36.7667 33.665 37.9652 33.6048V43.0983H37.7206C37.4793 43.0985 37.2403 43.1467 37.0175 43.2404C36.7883 43.327 36.5799 43.4617 36.406 43.6357C36.232 43.8111 36.0966 44.0215 36.0086 44.2533C35.9183 44.4747 35.8726 44.7119 35.874 44.9513V49.2008C35.868 49.6916 36.0549 50.1647 36.3938 50.5164C36.5697 50.6908 36.7773 50.8292 37.0052 50.9241C37.2304 51.0173 37.4712 51.0655 37.7145 51.0661H40.6679C40.9089 51.0627 41.147 51.0113 41.3683 50.9148C41.5897 50.8184 41.7901 50.6788 41.958 50.5041C42.3007 50.1584 42.4941 49.6899 42.4961 49.2008V44.9266C42.4909 44.4417 42.2977 43.9783 41.958 43.6357C41.6149 43.2918 41.1512 43.0987 40.6679 43.0983H40.4049V33.3701C41.2683 33.3077 42.1228 33.1545 42.9547 32.9131C43.3353 32.7945 43.7023 32.635 44.0492 32.4375L44.2021 32.3386L44.306 32.2707L44.4039 32.2027L44.5995 32.0421C46.4706 30.4177 48.4701 29.4727 48.5068 30.7451C48.5273 30.9232 48.5128 31.1038 48.464 31.2762C48.4009 31.5231 48.3191 31.7647 48.2194 31.9989C47.6079 33.4628 48.1827 33.6604 49.106 33.2342C50.2984 32.5676 51.3397 31.6566 52.1633 30.5598C52.8175 29.6889 53.5268 29.9977 53.9977 30.8871L54.071 31.0292C54.12 31.128 54.1628 31.233 54.2117 31.3442C54.2606 31.4554 54.2789 31.5295 54.3095 31.6283C54.3401 31.7271 54.3095 31.6901 54.3401 31.7271L54.3829 31.8877C54.3768 31.94 54.3899 31.9927 54.4196 32.036C54.7087 33.3765 54.5893 34.774 54.0772 36.0446C53.9195 36.447 53.7142 36.8286 53.4657 37.1811C53.2517 37.4568 53.021 37.7188 52.7747 37.9655C51.9478 38.7744 50.9931 39.4383 49.9498 39.9297C49.9498 39.9297 49.9804 40.2385 50.0293 40.7944C50.1516 42.0297 50.3473 44.5004 50.4329 47.3416C50.4329 47.3416 51.6558 51.2206 51.9309 52.7585C51.9457 52.8274 51.9463 52.8986 51.9326 52.9676C51.9189 53.0367 51.8913 53.1022 51.8514 53.16C51.8121 53.2185 51.7615 53.2683 51.7027 53.3065C51.6438 53.3447 51.578 53.3705 51.509 53.3824H51.4234C51.076 53.3949 50.7281 53.3763 50.3839 53.3268C50.3305 54.8467 50.1256 56.3573 49.7725 57.8357L49.693 58.089C49.6628 58.187 49.6196 58.2805 49.5646 58.3669C49.4498 58.555 49.2873 58.7086 49.0938 58.8116C48.9051 58.9098 48.6943 58.9566 48.4823 58.9475H48.0176C46.4769 58.8603 44.9518 58.5887 43.4745 58.1384C43.1698 58.7567 43.0267 59.4435 43.0587 60.1334C43.0909 60.8248 43.3017 61.4955 43.6701 62.0791C44.0344 62.6678 44.5417 63.1525 45.1437 63.4873C45.7468 63.8231 46.4241 63.9995 47.1126 64H51.026C53.8707 63.9963 56.5994 62.86 58.6203 60.8376C59.616 59.8364 60.4049 58.6455 60.9413 57.3339C61.4776 56.0223 61.7508 54.6162 61.7448 53.1971V49.8494H56.8532C56.6926 49.8579 56.5319 49.8344 56.3803 49.7801C56.2287 49.7259 56.0892 49.6421 55.9696 49.5334C55.7283 49.3139 55.5831 49.0065 55.5661 48.6789C55.549 48.3513 55.6615 48.0302 55.8788 47.7864C56.0961 47.5425 56.4004 47.3959 56.7248 47.3787H61.7448V44.3707H56.8532C56.5241 44.3689 56.2084 44.2382 55.9727 44.0063C55.8564 43.8911 55.764 43.7537 55.701 43.602C55.638 43.4503 55.6057 43.2875 55.6058 43.123V43.0365C55.634 42.7249 55.7782 42.4357 56.0094 42.2274C56.2405 42.0161 56.5414 41.8994 56.8532 41.9Z" fill="white"/>
<defs>
<linearGradient id="paint0_linear_1917_918" x1="4.4043" y1="3.52344" x2="80.7988" y2="79.998" gradientUnits="userSpaceOnUse">
<stop stop-color="#F85454"/>
<stop offset="1" stop-color="#F66668"/>
</linearGradient>
</defs>
</svg>
