<svg xmlns="http://www.w3.org/2000/svg" xmlns:xlink="http://www.w3.org/1999/xlink" width="335.55" height="132" viewBox="0 0 335.55 132"><defs><style>.a{fill:#112430;}.b{fill:url(#c);}.c{fill:#fff;}.d{filter:url(#l);}.e{filter:url(#j);}.f{filter:url(#h);}.g{filter:url(#f);}.h{filter:url(#d);}.i{filter:url(#a);}</style><filter id="a" x="0" y="0" width="132" height="132" filterUnits="userSpaceOnUse"><feOffset dy="3" input="SourceAlpha"/><feGaussianBlur stdDeviation="3" result="b"/><feFlood flood-color="#00d88f" flood-opacity="0.051"/><feComposite operator="in" in2="b"/><feComposite in="SourceGraphic"/></filter><radialGradient id="c" cx="0.215" cy="-0.074" r="0.993" gradientTransform="matrix(0.489, -0.872, 0.968, 0.543, 0.182, 0.154)" gradientUnits="objectBoundingBox"><stop offset="0" stop-color="#fd71a5"/><stop offset="0.206" stop-color="#fb7ea8"/><stop offset="0.685" stop-color="#0278fe"/><stop offset="1" stop-color="#2dfee1"/></radialGradient><filter id="d" x="141.016" y="38.682" width="41.984" height="54.836" filterUnits="userSpaceOnUse"><feOffset dy="3" input="SourceAlpha"/><feGaussianBlur stdDeviation="3" result="e"/><feFlood flood-opacity="0.102"/><feComposite operator="in" in2="e"/><feComposite in="SourceGraphic"/></filter><filter id="f" x="176.365" y="38.682" width="41.706" height="54.836" filterUnits="userSpaceOnUse"><feOffset dy="3" input="SourceAlpha"/><feGaussianBlur stdDeviation="3" result="g"/><feFlood flood-opacity="0.102"/><feComposite operator="in" in2="g"/><feComposite in="SourceGraphic"/></filter><filter id="h" x="209.265" y="38" width="49.372" height="55.848" filterUnits="userSpaceOnUse"><feOffset dy="3" input="SourceAlpha"/><feGaussianBlur stdDeviation="3" result="i"/><feFlood flood-opacity="0.102"/><feComposite operator="in" in2="i"/><feComposite in="SourceGraphic"/></filter><filter id="j" x="246.065" y="38.682" width="52.534" height="54.836" filterUnits="userSpaceOnUse"><feOffset dy="3" input="SourceAlpha"/><feGaussianBlur stdDeviation="3" result="k"/><feFlood flood-opacity="0.102"/><feComposite operator="in" in2="k"/><feComposite in="SourceGraphic"/></filter><filter id="l" x="287.545" y="38.682" width="48.005" height="54.836" filterUnits="userSpaceOnUse"><feOffset dy="3" input="SourceAlpha"/><feGaussianBlur stdDeviation="3" result="m"/><feFlood flood-opacity="0.102"/><feComposite operator="in" in2="m"/><feComposite in="SourceGraphic"/></filter></defs><g transform="translate(-312 -277)"><g class="i" transform="matrix(1, 0, 0, 1, 312, 277)"><rect class="a" width="114" height="114" rx="20" transform="translate(9 6)"/></g><path class="b" d="M490.439,294.576h7.88v-4.85h-7.88a2.035,2.035,0,0,1-2.052-1.856,1.988,1.988,0,0,1,1.982-2.12h7.861a31.962,31.962,0,0,0-31.874-29.63h0a31.961,31.961,0,0,0-31.874,29.63h7.5a2.035,2.035,0,0,1,2.052,1.856,1.988,1.988,0,0,1-1.982,2.12H434.4v4.85h7.582a2.035,2.035,0,0,1,2.052,1.856,1.988,1.988,0,0,1-1.982,2.12H434.4v4.85h7.582a2.035,2.035,0,0,1,2.052,1.856,1.988,1.988,0,0,1-1.982,2.12H434.4v5.39a17.193,17.193,0,0,0,2.014,8.1,8.949,8.949,0,0,0,15.385.565h0a10.626,10.626,0,0,0,1.261-8.835c-1.264-4.212-2.949-9.673-4.233-13.274a16.306,16.306,0,0,1,1.595-13.91l-1.874-.809a1.139,1.139,0,0,1-.66-1.372,1.108,1.108,0,0,1,1.493-.68l2.561,1.106.158-.108-.1-3.025a1.141,1.141,0,0,1,.957-1.185,1.107,1.107,0,0,1,1.252,1.059l.063,1.825c.027-.009.052-.023.079-.032a22.786,22.786,0,0,1,5.686-1.025v15.338h-.4a2.943,2.943,0,0,0-2.942,2.942v6.836a2.943,2.943,0,0,0,2.942,2.942h4.742a2.943,2.943,0,0,0,2.942-2.942V299.45a2.943,2.943,0,0,0-2.942-2.942h-.4V280.864a19.826,19.826,0,0,0,4.1-.741.008.008,0,0,0,0,0,8.759,8.759,0,0,0,1.759-.764l.054-.032c.083-.05.167-.1.248-.155l.155-.108c.056-.038.113-.077.167-.119.108-.081.212-.164.315-.252a.031.031,0,0,1,.009-.007c3.014-2.611,6.222-4.127,6.285-2.075v.007a2.7,2.7,0,0,1-.038.5c-.018.11-.041.225-.07.349a8.289,8.289,0,0,1-.39,1.165c-.962,2.356-.063,2.676,1.412,1.951a15.847,15.847,0,0,0,4.886-4.3c1.045-1.4,2.185-.91,2.969.518.041.074.081.151.122.232,0,0,0,0,0,.007.077.16.151.329.219.507q.088.223.162.466c.016.05.032.1.047.153.025.086.049.171.072.257s.04.158.059.239a10.921,10.921,0,0,1,.284,2.5,10.545,10.545,0,0,1-.755,3.987A8.381,8.381,0,0,1,485,286.978a12.542,12.542,0,0,1-1.108,1.259,16.722,16.722,0,0,1-4.453,3.136s.054.5.133,1.385c.185,2.021.507,6.03.649,10.533.007.02,1.937,6.244,2.406,8.722a.858.858,0,0,1-.82,1.02,10.854,10.854,0,0,1-1.669-.088,36.351,36.351,0,0,1-1.041,7.244q-.057.21-.122.412a1.905,1.905,0,0,1-.2.451,1.955,1.955,0,0,1-1.777.926c-.255-.014-.5-.029-.748-.047l-.038,0a31.606,31.606,0,0,1-7.312-1.3h0a6.521,6.521,0,0,0,5.839,9.425h6.294a17.29,17.29,0,0,0,17.291-17.291v-5.39h-7.879a2.035,2.035,0,0,1-2.052-1.856,1.988,1.988,0,0,1,1.982-2.12h7.947v-4.85h-7.947a1.985,1.985,0,0,1-1.982-2.12A2.03,2.03,0,0,1,490.439,294.576Z" transform="translate(-88.36 46.911)"/><g class="h" transform="matrix(1, 0, 0, 1, 312, 277)"><path class="c" d="M6.168-32.248H-8.4v15.053h-7.59V-54.031H7.99v6.148H-8.4v9.513H6.168Z" transform="translate(166.01 98.71)"/></g><g class="g" transform="matrix(1, 0, 0, 1, 312, 277)"><path class="c" d="M-8.163-23.292H7.953v6.1H-15.753V-54.031h7.59Z" transform="translate(201.12 98.71)"/></g><g class="f" transform="matrix(1, 0, 0, 1, 312, 277)"><path class="c" d="M8.327-35.014A22.237,22.237,0,0,1,6.4-25.476,14.48,14.48,0,0,1,.9-19.152a15.221,15.221,0,0,1-8.21,2.226,15.325,15.325,0,0,1-8.172-2.2,14.622,14.622,0,0,1-5.566-6.287,21.6,21.6,0,0,1-2-9.4v-1.822a22.12,22.12,0,0,1,1.961-9.576,14.6,14.6,0,0,1,5.541-6.35,15.241,15.241,0,0,1,8.184-2.214A15.241,15.241,0,0,1,.825-52.56a14.6,14.6,0,0,1,5.541,6.35,22.058,22.058,0,0,1,1.961,9.551ZM.636-36.684q0-5.794-2.075-8.8A6.761,6.761,0,0,0-7.359-48.5a6.763,6.763,0,0,0-5.895,2.973q-2.075,2.973-2.1,8.716v1.8q0,5.642,2.075,8.754a6.743,6.743,0,0,0,5.971,3.112,6.682,6.682,0,0,0,5.87-3q2.049-3,2.075-8.741Z" transform="translate(241.31 98.77)"/></g><g class="e" transform="matrix(1, 0, 0, 1, 312, 277)"><path class="c" d="M-1.4-24.785H-14.708l-2.53,7.59h-8.071L-11.6-54.031h7.033L9.225-17.195H1.155Zm-11.258-6.148H-3.45L-8.08-44.721Z" transform="translate(280.37 98.71)"/></g><g class="d" transform="matrix(1, 0, 0, 1, 312, 277)"><path class="c" d="M7.981-47.883H-3.3v30.688h-7.59V-47.883H-22.024v-6.148H7.981Z" transform="translate(318.57 98.71)"/></g></g></svg>