<svg width="335" height="132" viewBox="0 0 335 132" fill="none" xmlns="http://www.w3.org/2000/svg">
<mask id="mask0_1919_984" style="mask-type:alpha" maskUnits="userSpaceOnUse" x="0" y="0" width="335" height="132">
<rect width="335" height="132" fill="#D9D9D9"/>
</mask>
<g mask="url(#mask0_1919_984)">
<path d="M190.927 41.9298C190.927 42.0921 190.927 42.142 190.54 42.142C189.101 42.157 187.662 42.0778 186.233 41.9048C184.783 41.7255 183.323 41.6379 181.863 41.6426C181.147 41.5967 180.428 41.6514 179.728 41.8049C179.266 42.0047 179.028 42.6165 179.028 43.6154C179.028 44.8639 179.34 45.5257 179.94 45.688C180.33 45.7254 180.723 45.7254 181.113 45.688H188.979C189.404 45.688 189.604 46.7867 189.604 49.0217C189.668 50.1618 189.601 51.3055 189.404 52.4303C189.362 52.5378 189.288 52.6295 189.192 52.6925C189.1 52.755 188.989 52.7817 188.88 52.7674C188.464 52.7267 188.046 52.7267 187.631 52.7674C186.283 52.7674 184.197 52.5926 181.451 52.5926H180.04C179.39 52.5926 179.053 52.9796 179.053 53.4041C179.023 55.4878 179.103 57.5716 179.291 59.647C179.42 60.5863 179.486 61.5331 179.49 62.4813C179.49 62.8309 179.091 63.0057 178.242 63.0556H176.556C175.028 63.1057 173.499 63.0179 171.986 62.7934C171.91 62.797 171.834 62.7845 171.762 62.7569C171.691 62.7293 171.626 62.6871 171.572 62.6331C171.518 62.579 171.476 62.5143 171.448 62.443C171.421 62.3717 171.408 62.2954 171.412 62.2191C171.412 60.8082 171.474 58.6731 171.574 55.8389V49.4961C171.574 48.0727 171.574 45.688 171.362 43.1409C171.125 39.2329 171 37.0978 171 36.8106V36.5734C171 36.2613 171.187 36.0989 171.574 36.0989H180.09C181.62 36.1152 183.15 36.0402 184.672 35.8742C186.189 35.6994 187.715 35.6201 189.242 35.637C190.253 35.637 190.228 35.8992 190.303 36.4236C190.349 37.2553 190.349 38.089 190.303 38.9207C190.299 39.4767 190.387 40.0295 190.565 40.5564C190.726 41.0026 190.847 41.4622 190.927 41.9298Z" fill="white"/>
<path d="M216.411 62.7939H199.73C199.66 62.8068 199.588 62.8068 199.517 62.7939C199.446 62.767 199.382 62.7243 199.33 62.669C199.284 62.6124 199.246 62.5493 199.218 62.4817C199.206 62.4073 199.206 62.3314 199.218 62.257V49.7712C199.218 48.3728 199.218 46.0255 199.093 43.1289C198.968 40.2322 198.956 37.8724 198.956 36.5114C198.956 36.2243 199.143 36.0869 199.53 36.0869H206.647C206.834 36.0869 206.934 36.0869 206.909 36.4615V36.6987C206.759 39.0835 206.572 42.6794 206.397 47.4864V56.2264C206.398 56.2619 206.406 56.2968 206.422 56.329C206.437 56.3612 206.458 56.39 206.484 56.4137C206.536 56.4705 206.608 56.506 206.684 56.5135H207.171C208.32 56.5135 210.03 56.5135 212.365 56.3262C214.7 56.139 216.348 56.139 217.572 56.139C217.909 56.139 218.084 56.3013 218.084 56.5885C218.115 58.4731 217.952 60.356 217.597 62.207C217.608 62.3375 217.575 62.4681 217.503 62.5771C217.43 62.6861 217.322 62.767 217.197 62.8063L216.411 62.7939Z" fill="white"/>
<path d="M252.22 49.1216C252.286 50.9514 251.99 52.7762 251.347 54.4907C250.704 56.2051 249.728 57.7752 248.474 59.1101C246.552 61.0742 244.08 62.4113 241.384 62.946C238.688 63.4808 235.893 63.1882 233.367 62.1067C231.678 61.4164 230.152 60.383 228.884 59.0719C227.616 57.7609 226.634 56.2008 226 54.4904C224.782 51.0148 224.782 47.2283 226 43.7527C226.657 42.0464 227.637 40.4823 228.884 39.1455C230.159 37.839 231.678 36.7955 233.354 36.074C235.029 35.3652 236.829 35 238.648 35C240.467 35 242.267 35.3652 243.942 36.074C245.615 36.7957 247.129 37.8394 248.399 39.1455C250.934 41.8446 252.307 45.4322 252.22 49.134V49.1216ZM245.003 49.1216C245.053 47.3446 244.439 45.6127 243.28 44.2646C242.715 43.6013 242.012 43.0688 241.22 42.7039C240.028 42.1533 238.688 42.0077 237.405 42.2895C236.123 42.5713 234.967 43.2649 234.116 44.2646C232.929 45.5928 232.279 47.3154 232.293 49.0966C232.24 50.875 232.84 52.6114 233.978 53.9785C234.565 54.6401 235.289 55.1644 236.101 55.5142C236.889 55.8545 237.74 56.0206 238.598 56.0012C239.462 56.0003 240.315 55.8085 241.095 55.4393C241.894 55.0755 242.596 54.5279 243.143 53.8412C244.302 52.5343 244.934 50.8433 244.916 49.0966L245.003 49.1216Z" fill="white"/>
<path d="M285.817 62.0071C285.817 62.2444 285.668 62.4067 285.33 62.4816C284.159 62.6353 282.977 62.6895 281.797 62.6439C280.625 62.6774 279.452 62.6231 278.289 62.4816C278.077 62.4458 277.884 62.3403 277.739 62.1819C277.591 62.0293 277.499 61.8314 277.477 61.6201C277.335 60.5812 276.992 59.5802 276.466 58.6734C274.736 58.5735 273.001 58.5735 271.272 58.6734C270.115 58.6105 268.956 58.6733 267.813 58.8607C267.449 59.4935 267.204 60.1874 267.089 60.9084C266.852 61.9572 266.564 62.5315 266.227 62.6189C264.784 62.7688 263.332 62.8189 261.882 62.7688C259.935 62.7688 258.973 62.594 258.973 62.2194C258.973 61.8448 260.409 57.8119 263.268 50.0209C266.381 41.5805 268.113 36.9483 268.462 36.1242C268.612 35.6373 268.799 35.4001 269.012 35.4001C269.54 35.3627 270.069 35.3627 270.597 35.4001H275.192C275.454 35.4001 275.654 35.5998 275.866 36.0244C276.491 37.3562 278.301 41.9343 281.298 49.7586C284.294 57.583 285.801 61.6658 285.817 62.0071ZM272.308 44.627C272.046 45.1764 271.609 46.375 270.984 48.2728C270.522 49.3961 270.175 50.5632 269.948 51.7564C269.948 51.9686 270.335 52.106 271.084 52.1309H273.032C273.869 52.1309 274.281 52.1309 274.418 51.8188C274.43 51.7318 274.43 51.6435 274.418 51.5566C274.234 50.3952 273.954 49.2509 273.581 48.1355C273.264 46.9332 272.846 45.7596 272.333 44.627H272.308Z" fill="white"/>
<path d="M311.939 41.5686C311.939 41.8058 311.939 41.9306 311.515 41.9306C311.09 41.9306 309.13 41.9306 305.796 41.6435V48.3733C305.796 49.6218 305.796 52.119 305.983 55.153C306.171 58.187 306.171 60.397 306.171 61.9203C306.171 62.1575 306.171 62.3198 306.008 62.3698C305.826 62.3947 305.641 62.3947 305.459 62.3698C304.348 62.4945 303.23 62.5446 302.113 62.5196C300.966 62.5448 299.819 62.4947 298.679 62.3698C298.61 62.3883 298.537 62.3883 298.467 62.3698C298.399 62.337 298.336 62.295 298.28 62.2449C298.228 62.1921 298.19 62.1279 298.167 62.0576C298.156 61.9873 298.156 61.9157 298.167 61.8453C298.167 60.3221 298.167 58.0996 298.38 55.0656C298.592 52.0316 298.567 49.8216 298.567 48.3233C298.567 47.3245 298.567 45.1145 298.405 41.6809C296.337 41.9957 294.252 42.1792 292.162 42.2303C291.974 42.2303 291.875 42.2303 291.875 42.018C291.924 41.5251 292.012 41.0367 292.137 40.5572C292.336 39.6582 292.449 39.1338 292.474 38.9466V37.1361C292.474 36.5368 292.736 35.7252 292.936 35.7252H293.198C296.228 36.0621 299.277 36.1997 302.325 36.1373C304.432 36.1492 306.538 36.0282 308.63 35.7752L311.227 35.5879H311.677C311.689 35.7208 311.689 35.8546 311.677 35.9874V38.8467C311.639 39.3079 311.639 39.7714 311.677 40.2326C311.788 40.6729 311.876 41.1189 311.939 41.5686Z" fill="white"/>
<path d="M180.461 98.6533C179.165 98.6533 178.426 98.6341 178.243 98.5957C178.061 98.5573 177.907 98.4181 177.782 98.1781C176.688 96.0181 175.589 93.8533 174.485 91.6837C172.747 88.1989 171.878 86.2261 171.878 85.7653C171.878 85.0069 171.902 83.8693 171.95 82.3525C172.008 80.8261 172.037 79.6837 172.037 78.9253C172.037 78.5701 172.133 78.3925 172.325 78.3925C172.901 78.3925 173.774 78.4165 174.946 78.4645C176.117 78.5125 176.995 78.5365 177.581 78.5365C177.821 78.5365 177.941 78.6373 177.941 78.8389C177.941 79.6165 177.883 80.7877 177.768 82.3525C177.662 83.9077 177.61 85.0741 177.61 85.8517C177.61 86.4469 178.584 88.5733 180.533 92.2309C181.061 91.2805 181.661 90.1141 182.333 88.7317C183.235 86.8693 183.686 85.7269 183.686 85.3045C183.686 84.6037 183.677 83.5525 183.658 82.1509C183.638 80.7397 183.629 79.6837 183.629 78.9829C183.629 78.7237 183.672 78.5797 183.758 78.5509C183.758 78.5509 183.912 78.5509 184.219 78.5509C184.747 78.5509 185.544 78.5269 186.61 78.4789C187.685 78.4213 188.486 78.3925 189.014 78.3925C189.302 78.3925 189.446 78.5077 189.446 78.7381C189.446 79.4773 189.432 80.5957 189.403 82.0933C189.384 83.5813 189.374 84.6997 189.374 85.4485C189.374 86.0437 188.429 88.2325 186.538 92.0149C185.789 93.3781 184.709 95.4325 183.298 98.1781C183.202 98.3893 183.134 98.5093 183.096 98.5381C183.067 98.5573 182.947 98.5765 182.736 98.5957C182.246 98.6341 181.488 98.6533 180.461 98.6533ZM205.344 91.5109C205.344 93.6997 204.672 95.4757 203.328 96.8389C201.994 98.2021 200.237 98.8837 198.058 98.8837C195.946 98.8837 194.208 98.2117 192.845 96.8677C191.482 95.5237 190.8 93.7957 190.8 91.6837C190.8 89.4565 191.453 87.6517 192.758 86.2693C194.064 84.8773 195.83 84.1813 198.058 84.1813C200.227 84.1813 201.984 84.8629 203.328 86.2261C204.672 87.5797 205.344 89.3413 205.344 91.5109ZM200.621 91.5109C200.621 90.7525 200.386 90.0853 199.915 89.5093C199.445 88.9237 198.835 88.6309 198.086 88.6309C197.328 88.6309 196.704 88.9285 196.214 89.5237C195.754 90.0805 195.523 90.7429 195.523 91.5109C195.523 92.2885 195.754 92.9557 196.214 93.5125C196.704 94.1077 197.328 94.4053 198.086 94.4053C198.835 94.4053 199.454 94.1077 199.944 93.5125C200.395 92.9557 200.621 92.2885 200.621 91.5109ZM212.803 81.2869C212.803 82.9573 211.862 83.7925 209.981 83.7925C209.174 83.7925 208.507 83.5813 207.979 83.1589C207.403 82.6981 207.115 82.0741 207.115 81.2869C207.115 80.5381 207.413 79.9237 208.008 79.4437C208.555 79.0021 209.213 78.7813 209.981 78.7813C210.73 78.7813 211.378 79.0069 211.925 79.4581C212.51 79.9381 212.803 80.5477 212.803 81.2869ZM212.429 91.9861C212.429 92.6869 212.443 93.7333 212.472 95.1253C212.501 96.5077 212.515 97.5445 212.515 98.2357C212.515 98.4373 212.395 98.5573 212.155 98.5957C211.829 98.6533 211.094 98.6821 209.952 98.6821C208.8 98.6821 208.061 98.6533 207.734 98.5957C207.523 98.5573 207.394 98.4949 207.346 98.4085C207.326 98.3701 207.317 98.2261 207.317 97.9765C207.317 97.3141 207.331 96.3205 207.36 94.9957C207.389 93.6613 207.403 92.6581 207.403 91.9861C207.403 89.2597 207.298 87.0901 207.086 85.4773C207.067 85.3237 207.058 85.2229 207.058 85.1749C207.058 84.9829 207.187 84.8869 207.446 84.8869C207.715 84.8869 208.123 84.9157 208.67 84.9733C209.227 85.0309 209.645 85.0597 209.923 85.0597C210.202 85.0597 210.619 85.0357 211.176 84.9877C211.733 84.9397 212.15 84.9157 212.429 84.9157C212.659 84.9157 212.774 85.0117 212.774 85.2037C212.774 85.2421 212.765 85.3333 212.746 85.4773C212.534 87.3493 212.429 89.5189 212.429 91.9861ZM224.755 89.1205C224.746 89.1205 224.453 89.0437 223.877 88.8901C223.311 88.7365 222.85 88.6597 222.495 88.6597C221.64 88.6597 220.959 88.9189 220.45 89.4373C219.941 89.9461 219.687 90.6277 219.687 91.4821C219.687 92.3653 219.965 93.0613 220.522 93.5701C221.079 94.0693 221.803 94.3189 222.696 94.3189C223.119 94.3189 223.594 94.2133 224.122 94.0021C224.65 93.7813 224.899 93.6709 224.871 93.6709C225.034 93.6709 225.245 94.2805 225.504 95.4997C225.725 96.6133 225.835 97.3525 225.835 97.7173C225.835 98.0821 225.24 98.3941 224.05 98.6533C223.128 98.8549 222.384 98.9557 221.818 98.9557C219.706 98.9557 217.963 98.2453 216.59 96.8245C215.218 95.4037 214.531 93.6325 214.531 91.5109C214.531 89.4085 215.218 87.6421 216.59 86.2117C217.973 84.7717 219.715 84.0517 221.818 84.0517C223.248 84.0517 224.506 84.3589 225.591 84.9733C225.84 85.1077 225.965 85.2373 225.965 85.3621C225.965 85.4869 225.821 86.0533 225.533 87.0613C225.264 88.0309 225.087 88.6165 225 88.8181C224.923 89.0197 224.842 89.1205 224.755 89.1205ZM240.682 90.7765C240.682 91.7461 240.37 92.2981 239.746 92.4325C239.64 92.4517 238.647 92.5573 236.765 92.7493C235.632 92.8741 233.943 93.0229 231.696 93.1957C231.831 93.8197 232.239 94.2949 232.92 94.6213C233.477 94.8901 234.111 95.0245 234.821 95.0245C235.675 95.0245 236.535 94.7941 237.399 94.3333C237.763 94.1029 238.128 93.8725 238.493 93.6421C238.695 93.7381 239.031 94.2277 239.501 95.1109C239.981 95.9941 240.221 96.5557 240.221 96.7957C240.221 96.8629 240.149 96.9733 240.005 97.1269C238.834 98.3845 237.015 99.0133 234.547 99.0133C232.263 99.0133 230.419 98.3461 229.018 97.0117C227.578 95.6581 226.858 93.8485 226.858 91.5829C226.858 89.3749 227.501 87.5653 228.787 86.1541C230.112 84.6949 231.869 83.9653 234.058 83.9653C235.901 83.9653 237.466 84.6373 238.752 85.9813C240.039 87.3253 240.682 88.9237 240.682 90.7765ZM235.642 89.8981C235.642 89.3029 235.431 88.7797 235.008 88.3285C234.586 87.8773 234.082 87.6517 233.496 87.6517C232.891 87.6517 232.392 87.9061 231.999 88.4149C231.634 88.8853 231.451 89.4373 231.451 90.0709C231.451 90.3301 231.586 90.4597 231.855 90.4597C232.565 90.4597 233.669 90.3493 235.167 90.1285C235.483 90.0805 235.642 90.0037 235.642 89.8981ZM266.559 95.3413C266.559 95.4949 266.458 95.6965 266.256 95.9461C264.49 98.0485 262.143 99.0997 259.215 99.0997C256.219 99.0997 253.791 98.0773 251.928 96.0325C250.114 94.0549 249.207 91.5589 249.207 88.5445C249.207 85.6261 250.095 83.1493 251.871 81.1141C253.723 78.9829 256.08 77.9173 258.941 77.9173C262.051 77.9173 264.49 78.8725 266.256 80.7829C266.448 80.9941 266.544 81.1813 266.544 81.3445C266.544 81.5269 266.208 82.2037 265.536 83.3749C264.874 84.5461 264.456 85.2037 264.283 85.3477C264.207 85.4245 264.111 85.4629 263.995 85.4629C263.947 85.4629 263.707 85.2709 263.275 84.8869C262.757 84.4261 262.248 84.0661 261.749 83.8069C260.991 83.4229 260.203 83.2309 259.387 83.2309C257.976 83.2309 256.848 83.7589 256.003 84.8149C255.226 85.7941 254.837 87.0037 254.837 88.4437C254.837 89.9029 255.226 91.1269 256.003 92.1157C256.848 93.1909 257.976 93.7285 259.387 93.7285C260.223 93.7285 261.015 93.5461 261.763 93.1813C262.253 92.9413 262.752 92.6053 263.261 92.1733C263.683 91.8085 263.919 91.6261 263.967 91.6261C264.063 91.6261 264.159 91.6789 264.255 91.7845C264.408 91.9573 264.826 92.5573 265.507 93.5845C266.208 94.6501 266.559 95.2357 266.559 95.3413ZM282.384 88.1557L282.355 98.0917C282.355 98.4277 282.221 98.6149 281.952 98.6533C281.645 98.6917 280.944 98.7109 279.85 98.7109C278.794 98.7109 278.059 98.6725 277.647 98.5957C277.33 98.5381 277.171 98.3317 277.171 97.9765C277.171 97.1509 277.186 95.9077 277.215 94.2469C277.243 92.5861 277.258 91.3429 277.258 90.5173C277.258 89.3941 276.687 88.8325 275.544 88.8325C275.16 88.8325 274.709 88.9861 274.191 89.2933C273.624 89.6293 273.341 89.9797 273.341 90.3445V93.9013C273.341 94.3621 273.351 95.0581 273.37 95.9893C273.389 96.9109 273.399 97.6021 273.399 98.0629C273.399 98.4181 273.25 98.6149 272.952 98.6533C272.655 98.6917 271.819 98.7109 270.447 98.7109C269.659 98.7109 269.093 98.6725 268.747 98.5957C268.402 98.5189 268.229 98.3509 268.229 98.0917C268.229 97.3333 268.234 96.1957 268.243 94.6789C268.253 93.1525 268.258 92.0101 268.258 91.2517C268.258 88.1125 268.224 85.5157 268.157 83.4613C268.128 82.7413 268.104 82.0213 268.085 81.3013C268.037 80.4661 267.951 79.7509 267.826 79.1557C267.797 79.0309 267.783 78.9397 267.783 78.8821C267.783 78.7381 267.855 78.6421 267.999 78.5941C268.296 78.5077 268.733 78.4549 269.309 78.4357C270.077 78.4069 270.523 78.3829 270.648 78.3637C272.386 78.1621 273.255 78.0613 273.255 78.0613C273.408 78.0613 273.485 78.1621 273.485 78.3637C273.485 78.6709 273.466 79.0885 273.427 79.6165C273.389 80.2309 273.37 80.6485 273.37 80.8693C273.312 83.0389 273.283 84.7525 273.283 86.0101C273.283 86.2021 273.331 86.2981 273.427 86.2981C273.447 86.2981 273.691 86.1301 274.162 85.7941C274.719 85.4005 275.251 85.0885 275.76 84.8581C276.519 84.5221 277.253 84.3541 277.963 84.3541C279.192 84.3541 280.219 84.6757 281.045 85.3189C281.938 86.0101 282.384 86.9557 282.384 88.1557ZM299.218 91.3957C299.218 92.1349 299.261 93.2341 299.347 94.6933C299.434 96.1525 299.477 97.2469 299.477 97.9765C299.477 98.3605 299.309 98.5669 298.973 98.5957C297.783 98.6821 296.419 98.7253 294.883 98.7253C294.701 98.7253 294.576 98.4517 294.509 97.9045C294.451 97.3477 294.379 97.0645 294.293 97.0549C294.216 97.0933 294.115 97.1749 293.991 97.2997C292.915 98.3845 291.763 98.9269 290.535 98.9269C288.663 98.9269 287.112 98.1877 285.883 96.7093C284.722 95.3269 284.141 93.6757 284.141 91.7557C284.141 89.5381 284.741 87.7525 285.941 86.3989C287.189 84.9973 288.898 84.2965 291.067 84.2965C292.575 84.2965 293.765 84.8245 294.639 85.8805C294.677 85.9285 294.711 85.9525 294.739 85.9525C294.826 85.9525 294.922 85.7221 295.027 85.2613C295.143 84.7909 295.277 84.5557 295.431 84.5557C295.786 84.5557 296.463 84.6565 297.461 84.8581C298.411 85.0501 299.093 85.2133 299.506 85.3477C299.65 85.4053 299.722 85.4821 299.722 85.5781C299.722 85.6165 299.707 85.7173 299.679 85.8805C299.371 87.6181 299.218 89.4565 299.218 91.3957ZM294.581 91.4821C294.581 90.6661 294.322 89.9941 293.803 89.4661C293.295 88.9285 292.627 88.6597 291.802 88.6597C290.976 88.6597 290.309 88.9237 289.8 89.4517C289.291 89.9797 289.037 90.6565 289.037 91.4821C289.037 92.2597 289.306 92.9269 289.843 93.4837C290.381 94.0405 291.034 94.3189 291.802 94.3189C292.618 94.3189 293.285 94.0549 293.803 93.5269C294.322 92.9893 294.581 92.3077 294.581 91.4821ZM311.717 94.3765C311.717 94.6645 311.679 95.1013 311.602 95.6869C311.535 96.2725 311.501 96.7045 311.501 96.9829C311.501 97.2517 311.472 97.4245 311.415 97.5013C311.357 97.5781 311.199 97.6885 310.939 97.8325C309.701 98.5141 308.328 98.8549 306.821 98.8549C304.047 98.8549 302.659 97.7941 302.659 95.6725C302.659 95.0389 302.683 94.0885 302.731 92.8213C302.779 91.5445 302.803 90.5893 302.803 89.9557C302.803 89.5333 302.559 89.3221 302.069 89.3221C302.031 89.3221 301.968 89.3221 301.882 89.3221C301.795 89.3317 301.733 89.3365 301.695 89.3365C301.33 89.3365 301.147 89.2069 301.147 88.9477C301.147 88.7941 301.157 88.5589 301.176 88.2421C301.205 87.9253 301.219 87.6901 301.219 87.5365C301.219 87.3349 301.205 87.0277 301.176 86.6149C301.157 86.2021 301.147 85.8949 301.147 85.6933C301.147 85.5013 301.455 85.3957 302.069 85.3765C302.415 85.3669 302.602 85.2709 302.631 85.0885C302.688 84.7237 302.707 84.1477 302.688 83.3605C302.65 82.1221 302.631 81.5317 302.631 81.5893C302.631 80.4757 302.736 79.9189 302.947 79.9189C303.207 79.9189 303.576 79.9765 304.056 80.0917C304.603 80.2165 304.983 80.2885 305.194 80.3077C305.683 80.3749 306.423 80.4661 307.411 80.5813C307.651 80.6005 307.771 80.6821 307.771 80.8261C307.771 81.2101 307.738 81.7909 307.671 82.5685C307.613 83.3461 307.584 83.9317 307.584 84.3253C307.584 84.7957 307.723 85.0309 308.002 85.0309C308.338 85.0309 308.847 85.0165 309.528 84.9877C310.21 84.9589 310.723 84.9445 311.069 84.9445C311.28 84.9445 311.386 85.0165 311.386 85.1605C311.386 85.3813 311.362 85.7125 311.314 86.1541C311.266 86.5957 311.242 86.9269 311.242 87.1477C311.242 87.3781 311.247 87.7141 311.256 88.1557C311.266 88.5973 311.271 88.9333 311.271 89.1637C311.271 89.3653 311.131 89.4661 310.853 89.4661C310.661 89.4661 310.339 89.4613 309.888 89.4517C309.437 89.4325 309.115 89.4229 308.923 89.4229H307.843C307.699 89.4229 307.627 89.6341 307.627 90.0565C307.627 90.2869 307.627 90.6277 307.627 91.0789C307.637 91.5397 307.642 91.8805 307.642 92.1013C307.642 92.9077 307.733 93.4645 307.915 93.7717C308.175 94.1845 308.683 94.3909 309.442 94.3909C309.682 94.3909 310.023 94.3381 310.464 94.2325C310.915 94.1173 311.232 94.0597 311.415 94.0597C311.616 94.0597 311.717 94.1653 311.717 94.3765Z" fill="white"/>
<g filter="url(#filter0_dd_1919_984)">
<rect x="23" y="9" width="114" height="114" rx="20" fill="white"/>
</g>
<path d="M103.152 67.4479H110.611V62.8512H103.152C102.79 62.8581 102.434 62.7587 102.128 62.565C101.821 62.3713 101.577 62.0918 101.425 61.7604C101.272 61.429 101.219 61.06 101.271 60.6985C101.322 60.3369 101.477 59.9983 101.716 59.724C101.877 59.5349 102.074 59.3802 102.294 59.2686C102.515 59.157 102.756 59.0909 103.002 59.074H110.593C110.004 51.4254 106.557 44.2894 100.951 39.1142C95.3222 33.8955 87.96 31 80.3197 31C72.6795 31 65.3173 33.8955 59.6886 39.1142C54.0933 44.2946 50.6565 51.4297 50.0747 59.074H57.1895C57.6756 59.0664 58.1473 59.2409 58.5136 59.5638C58.8768 59.8931 59.0977 60.353 59.1291 60.8449C59.1442 61.0924 59.1108 61.3404 59.0309 61.5749C58.9509 61.8093 58.8259 62.0255 58.663 62.211C58.5001 62.3965 58.3026 62.5478 58.0817 62.656C57.8609 62.7642 57.6211 62.8274 57.376 62.8418H50.0001V67.4385H57.1895C57.6764 67.4263 58.1497 67.6013 58.5136 67.9283C58.8724 68.2529 59.093 68.7053 59.1291 69.1905C59.1595 69.6858 58.9954 70.1732 58.6721 70.5469C58.3399 70.9251 57.8751 71.1582 57.376 71.1968H50.0001V75.7935H57.1895C57.6773 75.7754 58.1527 75.9513 58.5136 76.2833C58.8746 76.6103 59.0953 77.0664 59.1291 77.5549C59.1442 77.8024 59.1108 78.0505 59.0309 78.285C58.9509 78.5194 58.8259 78.7356 58.663 78.9211C58.5001 79.1066 58.3026 79.2578 58.0817 79.3661C57.8609 79.4743 57.6211 79.5375 57.376 79.5519H50.0001V84.676C49.9931 87.3503 50.6334 89.9857 51.865 92.3529C52.5892 93.6439 53.6301 94.725 54.8876 95.4921C56.1451 96.2592 57.5769 96.6865 59.0451 96.7329C60.5095 96.7865 61.9633 96.4623 63.2693 95.791C64.5699 95.1181 65.6776 94.1192 66.4863 92.8898C67.2892 91.6717 67.8159 90.2894 68.0287 88.8419C68.2415 87.3943 68.1351 85.9171 67.7172 84.5159C66.5143 80.5221 64.9198 75.3414 63.6982 71.9221C62.9572 69.7504 62.7074 67.4385 62.9672 65.1564C63.227 62.8743 63.9898 60.68 65.1995 58.7349L63.4278 57.9814C63.1818 57.8787 62.9824 57.6873 62.8683 57.4444C62.7494 57.2049 62.726 56.9285 62.803 56.6721C62.8416 56.5397 62.9084 56.4175 62.9989 56.3141C63.0868 56.2089 63.1945 56.1224 63.3159 56.0598C63.4406 55.9951 63.577 55.9566 63.7169 55.9468C63.8522 55.9392 63.9878 55.9551 64.1178 55.9939H64.2111L66.6449 57.0488L66.7941 56.9452L66.7008 54.1194C66.6842 53.8446 66.7746 53.5742 66.9526 53.3658C67.129 53.1589 67.3746 53.0248 67.6426 52.9891C67.7811 52.9606 67.9238 52.9606 68.0622 52.9891C68.1975 53.0268 68.3242 53.0908 68.4352 53.1774C68.5446 53.266 68.6363 53.3747 68.7057 53.4977C68.771 53.6232 68.8091 53.7612 68.8176 53.9027V54.0064L68.8828 55.7395H68.9574C70.7095 55.2056 72.5194 54.8893 74.3472 54.7976V69.2753H73.9742C73.6061 69.2755 73.2417 69.3491 72.9018 69.4919C72.5523 69.624 72.2345 69.8295 71.9693 70.0948C71.704 70.3622 71.4975 70.6832 71.3632 71.0367C71.2256 71.3742 71.1559 71.7361 71.1581 72.1011V78.5817C71.1488 79.3301 71.4339 80.0516 71.9507 80.588C72.219 80.854 72.5356 81.065 72.8832 81.2097C73.2265 81.3518 73.5938 81.4254 73.9649 81.4263H78.4688C78.8364 81.4211 79.1994 81.3427 79.537 81.1956C79.8746 81.0485 80.1802 80.8356 80.4363 80.5692C80.9588 80.042 81.2538 79.3276 81.2569 78.5817V72.0634C81.2489 71.324 80.9543 70.6172 80.4363 70.0948C79.9129 69.5704 79.2059 69.2759 78.4688 69.2753H78.0678V54.4396C79.3844 54.3444 80.6876 54.1108 81.9562 53.7426C82.5367 53.5618 83.0962 53.3186 83.6254 53.0173L83.8585 52.8666L84.017 52.763L84.1662 52.6594L84.4646 52.4145C87.318 49.9372 90.3672 48.496 90.4232 50.4364C90.4546 50.7081 90.4324 50.9834 90.3579 51.2465C90.2617 51.6229 90.137 51.9914 89.9849 52.3485C89.0524 54.5809 89.929 54.8824 91.337 54.2324C93.1554 53.2158 94.7435 51.8265 95.9994 50.1538C96.9972 48.8257 98.0789 49.2966 98.7969 50.653L98.9088 50.8697C98.9834 51.0204 99.0486 51.1805 99.1232 51.3501C99.1978 51.5196 99.2258 51.6327 99.2724 51.7834C99.3191 51.9341 99.2724 51.8776 99.3191 51.9341L99.3843 52.179C99.3751 52.2587 99.395 52.3391 99.4403 52.405C99.8812 54.4493 99.6992 56.5805 98.9181 58.5183C98.6777 59.1319 98.3646 59.7139 97.9856 60.2514C97.6593 60.6719 97.3074 61.0714 96.9319 61.4477C95.6709 62.6813 94.2148 63.6937 92.6238 64.4431C92.6238 64.4431 92.6705 64.9141 92.7451 65.7618C92.9316 67.6457 93.23 71.4135 93.3605 75.7464C93.3605 75.7464 95.2255 81.6618 95.6451 84.0073C95.6676 84.1122 95.6685 84.2208 95.6476 84.3261C95.6267 84.4315 95.5846 84.5314 95.5239 84.6195C95.4639 84.7086 95.3867 84.7846 95.297 84.8429C95.2073 84.9011 95.1068 84.9405 95.0017 84.9586H94.8711C94.3413 84.9776 93.8108 84.9493 93.2859 84.8738C93.2044 87.1917 92.892 89.4954 92.3534 91.75L92.2322 92.1362C92.1861 92.2858 92.1202 92.4284 92.0364 92.5601C91.8614 92.847 91.6134 93.0812 91.3184 93.2383C91.0306 93.3879 90.7092 93.4594 90.3859 93.4455H89.6772C87.3276 93.3125 85.0018 92.8983 82.7488 92.2116C82.2842 93.1546 82.066 94.2019 82.1148 95.2541C82.1639 96.3084 82.4854 97.3313 83.0472 98.2212C83.6028 99.1189 84.3764 99.8583 85.2945 100.369C86.2142 100.881 87.247 101.15 88.2971 101.151H94.265C98.6033 101.145 102.764 99.4121 105.846 96.3279C107.365 94.8012 108.568 92.985 109.386 90.9848C110.204 88.9846 110.62 86.8402 110.611 84.676V79.5707H103.152C102.907 79.5837 102.662 79.5478 102.43 79.4652C102.199 79.3825 101.986 79.2546 101.804 79.0889C101.436 78.7541 101.215 78.2854 101.189 77.7857C101.163 77.2861 101.334 76.7965 101.666 76.4246C101.997 76.0528 102.461 75.8292 102.956 75.8029H110.611V71.2157H103.152C102.65 71.2129 102.168 71.0137 101.809 70.6599C101.631 70.4843 101.491 70.2747 101.395 70.0434C101.298 69.8121 101.249 69.5638 101.249 69.3129V69.1811C101.292 68.7059 101.512 68.2649 101.865 67.9471C102.217 67.6248 102.676 67.4468 103.152 67.4479Z" fill="url(#paint0_linear_1919_984)"/>
</g>
<defs>
<filter id="filter0_dd_1919_984" x="15" y="1" width="126" height="130" filterUnits="userSpaceOnUse" color-interpolation-filters="sRGB">
<feFlood flood-opacity="0" result="BackgroundImageFix"/>
<feColorMatrix in="SourceAlpha" type="matrix" values="0 0 0 0 0 0 0 0 0 0 0 0 0 0 0 0 0 0 127 0" result="hardAlpha"/>
<feOffset dy="4"/>
<feGaussianBlur stdDeviation="2"/>
<feComposite in2="hardAlpha" operator="out"/>
<feColorMatrix type="matrix" values="0 0 0 0 0 0 0 0 0 0 0 0 0 0 0 0 0 0 0.1 0"/>
<feBlend mode="normal" in2="BackgroundImageFix" result="effect1_dropShadow_1919_984"/>
<feColorMatrix in="SourceAlpha" type="matrix" values="0 0 0 0 0 0 0 0 0 0 0 0 0 0 0 0 0 0 127 0" result="hardAlpha"/>
<feOffset dx="-4" dy="-4"/>
<feGaussianBlur stdDeviation="2"/>
<feComposite in2="hardAlpha" operator="out"/>
<feColorMatrix type="matrix" values="0 0 0 0 0 0 0 0 0 0 0 0 0 0 0 0 0 0 0.1 0"/>
<feBlend mode="normal" in2="effect1_dropShadow_1919_984" result="effect2_dropShadow_1919_984"/>
<feBlend mode="normal" in="SourceGraphic" in2="effect2_dropShadow_1919_984" result="shape"/>
</filter>
<linearGradient id="paint0_linear_1919_984" x1="80.3058" y1="31" x2="80.3058" y2="101.151" gradientUnits="userSpaceOnUse">
<stop stop-color="#F85454"/>
<stop offset="1" stop-color="#F66466"/>
</linearGradient>
</defs>
</svg>
