<svg xmlns="http://www.w3.org/2000/svg" width="24" height="24" viewBox="0 0 24 24"><defs><style>.a{fill:none;}.b{fill:#fff;}</style></defs><path class="a" d="M0,0H24V24H0Z"/><path class="b" d="M19.56,17.739,12.7,24.259l-6.86-6.519a8.9,8.9,0,0,1,0-13.039,10.062,10.062,0,0,1,13.719,0,8.9,8.9,0,0,1,0,13.039ZM12.7,15.318a4.209,4.209,0,0,0,4.311-4.1,4.209,4.209,0,0,0-4.311-4.1,4.209,4.209,0,0,0-4.311,4.1A4.209,4.209,0,0,0,12.7,15.318Zm0-2.049a2.052,2.052,0,1,1,2.156-2.049A2.1,2.1,0,0,1,12.7,13.269Z" transform="translate(-0.701 -0.467)"/></svg>