<svg xmlns="http://www.w3.org/2000/svg" width="20.465" height="16.659" viewBox="0 0 20.465 16.659"><defs><style>.a{fill:#fff;}</style></defs><path class="a" d="M22.465,5.845A8.687,8.687,0,0,1,20.05,6.5,4.226,4.226,0,0,0,21.9,4.177,8.4,8.4,0,0,1,19.231,5.2a4.2,4.2,0,0,0-7.163,3.827,11.91,11.91,0,0,1-8.646-4.39A4.257,4.257,0,0,0,2.86,6.756a4.185,4.185,0,0,0,1.862,3.489,4.144,4.144,0,0,1-1.9-.522v.051A4.2,4.2,0,0,0,6.2,13.867a4.021,4.021,0,0,1-1.126.174,5.014,5.014,0,0,1-.788-.072A4.205,4.205,0,0,0,8.2,16.875a8.411,8.411,0,0,1-5.178,1.8A8.115,8.115,0,0,1,2,18.615a11.839,11.839,0,0,0,6.436,1.893A11.859,11.859,0,0,0,20.418,8.557V8.014A8.626,8.626,0,0,0,22.465,5.845Z" transform="translate(-2 -3.849)"/></svg>