<svg xmlns="http://www.w3.org/2000/svg" width="18.893" height="15.115" viewBox="0 0 18.893 15.115"><defs><style>.a{fill:#fff;}</style></defs><path class="a" d="M20.462,6.36a29.34,29.34,0,0,1,.432,5.2,29.34,29.34,0,0,1-.432,5.2,2.656,2.656,0,0,1-1.831,1.91c-1.614.45-7.184.45-7.184.45s-5.567,0-7.184-.45a2.655,2.655,0,0,1-1.831-1.91A29.34,29.34,0,0,1,2,11.557a29.34,29.34,0,0,1,.432-5.2A2.656,2.656,0,0,1,4.262,4.45C5.88,4,11.447,4,11.447,4s5.57,0,7.184.45A2.655,2.655,0,0,1,20.462,6.36Zm-10.9,8.5,5.668-3.306L9.557,8.251Z" transform="translate(-2 -4)"/></svg>